<?xml version="1.0" encoding="UTF-8" standalone="no"?>
<!-- Created with Inkscape (http://www.inkscape.org/) -->

<svg
   width="781.04047"
   height="173.57228"
   viewBox="0 0 206.65029 45.924332"
   version="1.1"
   id="svg1"
   inkscape:version="1.3 (0e150ed6c4, 2023-07-21)"
   sodipodi:docname="forsvind-b.svg"
   xmlns:inkscape="http://www.inkscape.org/namespaces/inkscape"
   xmlns:sodipodi="http://sodipodi.sourceforge.net/DTD/sodipodi-0.dtd"
   xmlns="http://www.w3.org/2000/svg"
   xmlns:svg="http://www.w3.org/2000/svg">
  <sodipodi:namedview
     id="namedview1"
     pagecolor="#ffffff"
     bordercolor="#111111"
     borderopacity="1"
     inkscape:showpageshadow="0"
     inkscape:pageopacity="0"
     inkscape:pagecheckerboard="1"
     inkscape:deskcolor="#d1d1d1"
     inkscape:document-units="px"
     inkscape:zoom="0.60980159"
     inkscape:cx="390.29088"
     inkscape:cy="86.093577"
     inkscape:window-width="1916"
     inkscape:window-height="1021"
     inkscape:window-x="0"
     inkscape:window-y="30"
     inkscape:window-maximized="1"
     inkscape:current-layer="layer1" />
  <defs
     id="defs1" />
  <g
     inkscape:label="Layer 1"
     inkscape:groupmode="layer"
     id="layer1"
     transform="translate(-1.5875,-125.67708)">
    <path
       id="path1"
       style="fill:#000000;fill-opacity:0.60000002"
       d="m 36.557039,125.67708 0.785481,7.22539 c -0.01646,0.0484 -0.06897,0.0584 -0.188102,0.0584 -0.126159,0 -0.330635,0.0524 -0.454236,0.11627 -0.309,0.15978 -0.792841,0.30696 -1.008724,0.30696 -0.09872,0 -0.203247,0.0383 -0.232027,0.0847 -0.02878,0.0466 -0.141777,0.0848 -0.251147,0.0848 -0.168592,0 -0.582083,0.17094 -1.25057,0.51676 -0.08086,0.0419 -0.204439,0.076 -0.274918,0.076 -0.07048,0 -0.128158,0.0388 -0.128158,0.0853 0,0.0466 -0.05433,0.0842 -0.120406,0.0842 -0.151087,0 -0.640587,0.27447 -0.641305,0.35967 -2.94e-4,0.0349 -0.07637,0.0641 -0.169498,0.0641 -0.09313,0 -0.169499,0.0382 -0.169499,0.0847 0,0.0466 -0.05727,0.0848 -0.127124,0.0848 -0.06985,0 -0.126607,0.0382 -0.126607,0.0847 0,0.0466 -0.05338,0.0842 -0.118339,0.0842 -0.06496,0 -0.207632,0.0947 -0.317294,0.21033 -0.109663,0.11555 -0.23765,0.21139 -0.28422,0.21239 -0.04657,10e-4 -0.206718,0.1158 -0.355534,0.25528 -0.148816,0.13949 -0.308331,0.25373 -0.3545,0.25373 -0.115047,0 -2.03618,1.90885 -2.34301,2.32802 -0.136345,0.18627 -0.269746,0.35807 -0.296106,0.38137 -0.133965,0.11834 -0.841809,1.17726 -0.841809,1.25936 0,0.0523 -0.03818,0.0951 -0.08475,0.0951 -0.04657,0 -0.08475,0.0764 -0.08475,0.1695 0,0.0931 -0.02913,0.16898 -0.06511,0.16898 -0.03598,0 -0.125941,0.1241 -0.199471,0.27544 -0.07353,0.15135 -0.215182,0.44055 -0.315226,0.64285 -0.100048,0.20231 -0.181901,0.45953 -0.181901,0.57154 0,0.11207 -0.03539,0.20361 -0.07855,0.20361 -0.110216,0 -0.345199,0.49504 -0.345199,0.7276 0,0.10651 -0.03818,0.21718 -0.08475,0.24598 -0.04657,0.0288 -0.08423,0.12665 -0.08423,0.21705 0,0.0904 -0.03818,0.16433 -0.08475,0.16433 -0.04657,0 -0.08475,0.16835 -0.08475,0.37413 0,0.20577 -0.05315,0.48157 -0.118339,0.6134 -0.232163,0.46949 -0.304891,0.85515 -0.304891,1.61696 0,0.42469 -0.03818,0.79544 -0.08475,0.82424 -0.112498,0.0695 -0.112498,2.21666 0,2.28616 0.04765,0.0294 0.08475,0.43654 0.08475,0.93121 0,0.49468 0.0371,0.90181 0.08475,0.93121 0.04657,0.0288 0.08423,0.13811 0.08423,0.24288 0,0.10477 0.05617,0.26462 0.12454,0.35502 0.06837,0.0904 0.125624,0.34518 0.127124,0.56637 0.0015,0.22119 0.04076,0.40204 0.08733,0.40204 0.04657,0 0.08475,0.0739 0.08475,0.16434 0,0.0904 0.03818,0.18824 0.08475,0.21704 0.04657,0.0288 0.08423,0.13946 0.08423,0.24598 0,0.23256 0.234983,0.7276 0.345199,0.7276 0.04315,0 0.07855,0.13312 0.07855,0.29611 0,0.16298 0.02836,0.29662 0.06356,0.29662 0.0352,0 0.11513,0.12358 0.17725,0.27492 0.196387,0.47843 0.388096,0.82579 0.455786,0.82579 0.03597,0 0.06511,0.0609 0.06511,0.13591 0,0.075 0.171305,0.38185 0.380855,0.68161 0.209548,0.29977 0.381372,0.56448 0.381372,0.58808 0,0.0236 0.113731,0.16434 0.253215,0.31315 0.139484,0.14882 0.254033,0.29505 0.254248,0.32505 2.16e-4,0.03 0.105001,0.16697 0.23306,0.30437 0.128058,0.1374 0.308469,0.35127 0.401009,0.47491 0.09254,0.12364 0.207542,0.22479 0.255282,0.22479 0.04774,0 0.162742,0.10245 0.255282,0.2279 0.09255,0.12546 0.240262,0.28768 0.328662,0.36018 0.0884,0.0725 0.303068,0.27445 0.476973,0.44907 0.173905,0.17463 0.34927,0.31759 0.38964,0.31781 0.04037,2.1e-4 0.187929,0.10513 0.327629,0.23306 0.308286,0.2823 0.937224,0.69815 1.056266,0.69815 0.04756,0 0.0863,0.0376 0.0863,0.0842 0,0.0466 0.05727,0.0847 0.127124,0.0847 0.06985,0 0.127124,0.0345 0.127124,0.0765 0,0.042 0.105004,0.11647 0.233061,0.16537 0.128059,0.0489 0.328001,0.14277 0.444417,0.20877 0.51211,0.29014 1.109411,0.56534 1.226799,0.56534 0.07019,0 0.12764,0.0382 0.12764,0.0848 0,0.0466 0.07394,0.0847 0.164331,0.0847 0.09039,0 0.187745,0.0382 0.216525,0.0848 0.02878,0.0466 0.162419,0.0847 0.296622,0.0847 0.134204,0 0.267326,0.0383 0.296106,0.0848 0.02878,0.0466 0.126651,0.0847 0.217041,0.0847 0.09039,0 0.164331,0.0332 0.164331,0.0734 0,0.0402 0.176765,0.0974 0.393258,0.12712 0.216493,0.0297 0.435522,0.0874 0.486792,0.12867 0.123327,0.0993 0.687867,0.18198 1.596285,0.23358 l 0.74104,0.0419 v 1.00511 c 0,0.57867 0.03548,1.0272 0.08423,1.0573 0.04657,0.0288 0.08475,0.12612 0.08475,0.21652 0,0.15834 0.08025,0.16433 2.32854,0.16433 h 2.32854 v -1.30225 c 0,-0.95188 0.02857,-1.32562 0.107487,-1.39112 0.05937,-0.0493 0.307043,-0.11602 0.550354,-0.14832 0.24331,-0.0323 0.44235,-0.0922 0.44235,-0.1328 0,-0.0406 0.09546,-0.0734 0.211874,-0.0734 0.116417,0 0.211873,-0.0382 0.211873,-0.0847 0,-0.0466 0.107454,-0.0848 0.239262,-0.0848 0.131807,0 0.427208,-0.0951 0.656291,-0.21136 0.229083,-0.11626 0.464238,-0.21168 0.522448,-0.21187 0.05821,-2e-4 0.105937,-0.0384 0.105937,-0.0848 0,-0.0466 0.07585,-0.0847 0.168982,-0.0847 0.09313,0 0.169499,-0.0377 0.169499,-0.0842 0,-0.0466 0.05546,-0.0853 0.12299,-0.0853 0.143549,0 0.909159,-0.41172 1.15135,-0.61908 0.09182,-0.0786 0.223687,-0.14315 0.293006,-0.14315 0.06931,0 0.127157,-0.0281 0.128157,-0.063 10e-4,-0.0349 0.171915,-0.17811 0.380339,-0.31781 0.208423,-0.1397 0.379204,-0.2824 0.379305,-0.3173 1.01e-4,-0.0349 0.05727,-0.0636 0.127124,-0.0636 0.06985,0 0.127124,-0.0383 0.127124,-0.0847 0,-0.0466 0.04347,-0.0848 0.09664,-0.0848 0.05317,0 0.200354,-0.10448 0.327112,-0.23254 0.126759,-0.12806 0.369144,-0.36009 0.538468,-0.51522 0.169324,-0.15512 0.307992,-0.31686 0.307992,-0.35966 0,-0.0428 0.03616,-0.078 0.08061,-0.078 0.09651,0 0.512113,-0.40301 0.512113,-0.49661 0,-0.0361 0.08539,-0.14216 0.19017,-0.23616 0.242051,-0.21712 0.571541,-0.60682 0.571541,-0.67592 0,-0.0291 0.06721,-0.11436 0.149345,-0.18966 0.18749,-0.1719 0.612882,-0.82389 0.612882,-0.93947 0,-0.0476 0.03367,-0.0868 0.07493,-0.0868 0.04126,0 0.138261,-0.12358 0.215491,-0.27492 0.07723,-0.15134 0.212073,-0.38947 0.299723,-0.52917 0.08765,-0.1397 0.161965,-0.32106 0.165365,-0.40256 0.0034,-0.0815 0.04438,-0.14779 0.09095,-0.14779 0.04657,0 0.08475,-0.0971 0.08475,-0.21549 0,-0.11836 0.07767,-0.29859 0.172599,-0.40049 0.09493,-0.1019 0.192975,-0.28108 0.218075,-0.39843 0.0251,-0.11734 0.08622,-0.30888 0.135392,-0.4253 0.189139,-0.44777 0.225537,-0.55801 0.267167,-0.80408 0.08538,-0.50468 0.167261,-0.76103 0.278536,-0.8723 0.06656,-0.0666 0.113688,-0.301 0.113688,-0.56792 0,-0.25005 0.03766,-0.47815 0.08423,-0.50695 0.04657,-0.0288 0.08475,-0.25736 0.08475,-0.50798 0,-0.25062 0.03818,-0.47918 0.08475,-0.50798 0.05161,-0.0319 0.08475,-0.67661 0.08475,-1.65106 0,-0.97446 -0.03314,-1.61916 -0.08475,-1.65106 -0.04657,-0.0288 -0.08475,-0.25978 -0.08475,-0.51315 0,-0.25337 -0.03818,-0.46044 -0.08475,-0.46044 -0.04693,0 -0.08423,-0.2241 -0.08423,-0.50229 0,-0.33329 -0.04279,-0.5446 -0.127124,-0.6289 -0.06985,-0.0698 -0.127124,-0.20344 -0.127124,-0.29714 0,-0.0937 -0.03818,-0.19393 -0.08475,-0.22273 -0.04657,-0.0288 -0.08475,-0.18381 -0.08475,-0.34468 0,-0.16087 -0.03766,-0.36845 -0.08423,-0.46095 -0.04657,-0.0925 -0.122929,-0.24392 -0.169499,-0.33642 -0.04657,-0.0925 -0.08475,-0.24671 -0.08475,-0.34261 0,-0.0959 -0.09546,-0.26961 -0.211874,-0.38602 -0.130257,-0.13026 -0.211356,-0.30754 -0.211356,-0.46148 0,-0.13758 -0.03818,-0.25011 -0.08475,-0.25011 -0.04657,0 -0.08475,-0.0764 -0.08475,-0.1695 0,-0.0931 -0.03818,-0.1695 -0.08475,-0.1695 -0.04657,0 -0.08475,-0.0593 -0.08475,-0.13229 0,-0.073 -0.09494,-0.25768 -0.211356,-0.41031 -0.116416,-0.15263 -0.211874,-0.32137 -0.211874,-0.37517 0,-0.0538 -0.03818,-0.0982 -0.08475,-0.0982 -0.04657,0 -0.08469,-0.0472 -0.08475,-0.10542 -5.7e-5,-0.0582 -0.095,-0.21661 -0.211357,-0.35191 -0.116363,-0.1353 -0.211873,-0.28003 -0.211873,-0.32143 0,-0.0414 -0.08539,-0.16344 -0.19017,-0.27078 -0.273745,-0.28046 -0.571541,-0.66943 -0.571541,-0.74673 0,-0.0365 -0.05819,-0.0661 -0.129191,-0.0661 -0.071,0 -0.163169,-0.0859 -0.204639,-0.19069 -0.08357,-0.21112 -1.211256,-1.32345 -1.740462,-1.71669 -0.186266,-0.13841 -0.389089,-0.2994 -0.450618,-0.3576 -0.06153,-0.0582 -0.142388,-0.10594 -0.179318,-0.10594 -0.03693,0 -0.195815,-0.11374 -0.353466,-0.2527 -0.157652,-0.13896 -0.334531,-0.25299 -0.392741,-0.25373 -0.0582,-7e-4 -0.10542,-0.0397 -0.10542,-0.0863 0,-0.0466 -0.05727,-0.0842 -0.127124,-0.0842 -0.06985,0 -0.127124,-0.0377 -0.127124,-0.0842 0,-0.0466 -0.07637,-0.0853 -0.169499,-0.0853 -0.09314,0 -0.169205,-0.0287 -0.169499,-0.0636 -7.18e-4,-0.0852 -0.490217,-0.35967 -0.641304,-0.35967 -0.06608,0 -0.120406,-0.0383 -0.120406,-0.0848 0,-0.0466 -0.07395,-0.0847 -0.164331,-0.0847 -0.09038,0 -0.187745,-0.0382 -0.216525,-0.0848 -0.02878,-0.0466 -0.121509,-0.0847 -0.206189,-0.0847 -0.08468,0 -0.196447,-0.051 -0.248047,-0.11317 -0.0516,-0.0622 -0.256178,-0.16157 -0.454752,-0.22117 -0.198573,-0.0595 -0.43707,-0.13827 -0.5302,-0.17467 -0.09313,-0.0364 -0.398079,-0.11497 -0.677478,-0.17467 -0.279398,-0.0597 -0.583045,-0.15854 -0.674895,-0.22014 -0.09185,-0.0616 -0.385349,-0.11213 -0.651639,-0.11213 -0.266288,0 -0.507622,-0.0383 -0.536402,-0.0848 -0.02878,-0.0466 -0.126144,-0.0847 -0.216524,-0.0847 -0.06014,0 -0.09778,-0.0151 -0.12299,-0.0512 l -0.05271,-0.34365 c -0.0018,-0.0114 -0.0025,-0.0236 -0.0041,-0.0351 h -0.0016 l -0.189653,-1.23197 z m 5.553666,4.2819 c -0.12037,0.009 -0.240604,0.0208 -0.361218,0.0191 -0.0205,-3.1e-4 -0.04047,-0.007 -0.06046,-0.0119 -0.0035,0.005 -0.0062,0.009 -0.0098,0.0139 0.03946,5.7e-4 0.07888,0.001 0.118339,0.002 0.102823,0.001 0.209193,-0.0143 0.313159,-0.0181 z m 71.709835,1.68001 c -0.56337,0 -0.92966,0.0334 -0.92966,0.0847 0,0.0521 -0.42206,0.0847 -1.09606,0.0847 -0.63912,0 -1.11723,0.0354 -1.14773,0.0848 -0.0297,0.0481 -0.45043,0.0847 -0.97204,0.0847 -0.50568,0 -0.97946,0.0229 -1.05316,0.0512 -0.1472,0.0565 -0.1809,0.45125 -0.0589,0.69092 0.0411,0.0809 0.11438,0.24221 0.16278,0.35863 0.0484,0.11641 0.15531,0.37363 0.23771,0.57154 0.0824,0.1979 0.18047,0.35967 0.21807,0.35967 0.0376,0 0.0687,0.11403 0.0687,0.25373 0,0.1397 0.0376,0.25425 0.0842,0.25425 0.0466,0 0.0847,0.0739 0.0847,0.16433 0,0.0904 0.0383,0.18772 0.0847,0.21652 0.0466,0.0288 0.0847,0.14015 0.0847,0.24702 0,0.10687 0.0955,0.2971 0.21188,0.42271 0.12627,0.13626 0.21135,0.32908 0.21135,0.47801 0,0.1373 0.0382,0.2496 0.0847,0.2496 0.0466,0 0.0832,0.0759 0.0832,0.16898 0,0.0931 0.0368,0.1695 0.0832,0.1695 0.0466,0 0.0847,0.10112 0.0847,0.22479 0,0.12366 0.0955,0.34966 0.21187,0.50229 0.11947,0.15659 0.21136,0.39093 0.21136,0.53744 0,0.1428 0.0384,0.25941 0.0847,0.25941 0.0466,0 0.0847,0.0739 0.0847,0.16434 0,0.0904 0.0384,0.18772 0.0847,0.21652 0.0466,0.0288 0.0847,0.12664 0.0847,0.21704 0,0.0903 0.0386,0.16433 0.0847,0.16433 0.0466,0 0.0847,0.0729 0.0847,0.16227 0,0.17399 0.25441,0.70819 0.35966,0.75499 0.0349,0.0155 0.0641,0.12955 0.0651,0.25373 10e-4,0.12418 0.0768,0.32129 0.16795,0.4377 0.0911,0.11642 0.16643,0.29789 0.16743,0.40359 10e-4,0.1057 0.097,0.3432 0.21342,0.52762 0.11636,0.18441 0.21136,0.39207 0.21136,0.46147 0,0.0694 0.0764,0.26154 0.1695,0.42736 0.0931,0.16581 0.16949,0.3516 0.16949,0.4129 0,0.14355 0.24043,0.62763 0.34365,0.69143 0.0436,0.0269 0.0796,0.1607 0.0796,0.29765 0,0.13696 0.0384,0.24908 0.0847,0.24908 0.0466,0 0.0842,0.0577 0.0842,0.12816 0,0.0705 0.0333,0.19454 0.0744,0.27544 0.0411,0.0809 0.12043,0.26131 0.17673,0.40101 0.0563,0.1397 0.1562,0.36168 0.2217,0.49351 0.0656,0.13184 0.11937,0.29356 0.11937,0.35966 0,0.066 0.0372,0.12041 0.0837,0.12041 0.0466,0 0.0842,0.11403 0.0842,0.25373 0,0.1397 0.0379,0.25425 0.0842,0.25425 0.0466,0 0.0847,0.0577 0.0847,0.12816 0,0.11821 0.0833,0.31336 0.26975,0.63355 0.0407,0.0699 0.0961,0.19394 0.12351,0.27544 0.0273,0.0815 0.0834,0.14831 0.12454,0.14831 0.0411,0 0.0749,0.11161 0.0749,0.24856 0,0.13695 0.0381,0.27247 0.0842,0.30127 0.0466,0.0288 0.0847,0.12665 0.0847,0.21705 0,0.0904 0.0383,0.16433 0.0847,0.16433 0.0466,0 0.0847,0.0926 0.0847,0.20567 0,0.11309 0.0573,0.26238 0.12712,0.33228 0.0698,0.0699 0.12661,0.18725 0.12661,0.26045 0,0.0731 0.0385,0.13281 0.0847,0.13281 0.0466,0 0.0842,0.0752 0.0842,0.16691 0,0.0917 0.0764,0.30237 0.1695,0.46819 0.0931,0.16581 0.16898,0.39094 0.16898,0.50023 0,0.1093 0.0573,0.24585 0.12713,0.30385 0.0698,0.058 0.12712,0.17472 0.12712,0.25942 0,0.0847 0.0378,0.17739 0.0842,0.20619 0.0466,0.0288 0.0853,0.12664 0.0853,0.21704 0,0.0904 0.0377,0.16433 0.0842,0.16433 0.0466,0 0.0847,0.0914 0.0847,0.20309 0,0.11166 0.0945,0.36836 0.21032,0.57102 0.11584,0.20266 0.21143,0.42568 0.21343,0.49558 0.002,0.0699 0.0774,0.22259 0.16846,0.339 0.0911,0.11642 0.16695,0.31637 0.16795,0.44442 0.001,0.12806 0.0397,0.23254 0.0863,0.23254 0.0466,0 0.0847,0.0739 0.0847,0.16433 0,0.0904 0.0345,0.18631 0.0775,0.21291 0.043,0.0266 0.10325,0.16211 0.13385,0.30127 0.0306,0.13917 0.0809,0.25337 0.11213,0.25373 0.0969,0.001 0.26872,0.44428 0.26872,0.6935 0,0.13042 0.0289,0.2372 0.0641,0.2372 0.0651,0 0.21446,0.31102 0.31523,0.65629 0.0306,0.1048 0.0915,0.19017 0.13487,0.19017 0.0435,0 0.0791,0.11454 0.0791,0.25424 0,0.1397 0.0376,0.25373 0.0842,0.25373 0.0466,0 0.0842,0.0739 0.0842,0.16434 0,0.0904 0.0378,0.18824 0.0842,0.21704 0.0466,0.0288 0.0842,0.12677 0.0842,0.21807 0,0.0913 0.0955,0.31684 0.21187,0.50126 0.11646,0.18441 0.21136,0.3855 0.21136,0.447 0,0.15708 0.19903,0.56764 0.27543,0.56844 0.0349,3.6e-4 0.0641,0.0902 0.0641,0.19948 0,0.23654 0.23334,0.73277 0.34468,0.73277 0.0432,0 0.0785,0.11161 0.0785,0.24856 0,0.13696 0.0384,0.27247 0.0847,0.30127 0.0466,0.0288 0.0842,0.12665 0.0842,0.21705 0,0.0904 0.0383,0.16433 0.0847,0.16433 0.0466,0 0.0842,0.10112 0.0842,0.22479 0,0.12366 0.0949,0.34966 0.21135,0.50229 0.11646,0.15263 0.21188,0.35649 0.21188,0.45269 0,0.0963 0.0384,0.17467 0.0847,0.17467 0.0466,0 0.0842,0.0959 0.0842,0.2129 0,0.11704 0.0473,0.28879 0.10542,0.38189 0.1028,0.1645 0.18715,0.16887 3.15329,0.14728 l 3.0484,-0.0222 0.0284,-0.20102 c 0.0156,-0.11045 0.10097,-0.33065 0.19017,-0.48938 0.0892,-0.15872 0.16226,-0.33124 0.16226,-0.38344 0,-0.0843 0.30831,-0.79662 0.51522,-1.19011 0.0425,-0.0809 0.0775,-0.24261 0.0775,-0.35966 0,-0.11702 0.0377,-0.21291 0.0842,-0.21291 0.0466,0 0.0853,-0.0764 0.0853,-0.1695 0,-0.0931 0.0346,-0.16898 0.0775,-0.16898 0.0429,0 0.10496,-0.12156 0.13746,-0.26975 0.0325,-0.14819 0.13048,-0.39703 0.21808,-0.55294 0.0875,-0.15591 0.15968,-0.37748 0.15968,-0.49248 0,-0.11499 0.029,-0.20929 0.0646,-0.20929 0.0786,0 0.35864,-0.62815 0.35864,-0.8046 0,-0.0695 0.0384,-0.12661 0.0848,-0.12661 0.0466,0 0.0847,-0.0577 0.0847,-0.12815 0,-0.0705 0.0376,-0.20361 0.0842,-0.29611 0.0466,-0.0925 0.1229,-0.24391 0.1695,-0.33641 0.0466,-0.0925 0.0842,-0.22613 0.0842,-0.29663 0,-0.0704 0.0387,-0.12815 0.0853,-0.12815 0.0466,0 0.0842,-0.10971 0.0842,-0.24443 0,-0.13962 0.0547,-0.26624 0.12712,-0.29404 0.0698,-0.0268 0.12661,-0.12649 0.12661,-0.22169 0,-0.0952 0.0384,-0.24908 0.0848,-0.34158 0.0466,-0.0925 0.1229,-0.24392 0.1695,-0.33642 0.0466,-0.0925 0.0847,-0.26381 0.0847,-0.38085 0,-0.11702 0.0384,-0.21291 0.0848,-0.21291 0.0466,0 0.0847,-0.0521 0.0847,-0.11627 0,-0.0642 0.0568,-0.16421 0.1266,-0.22221 0.0698,-0.058 0.12713,-0.20809 0.12713,-0.33331 0,-0.12521 0.0764,-0.30928 0.1695,-0.40928 0.0931,-0.1 0.16949,-0.2976 0.16949,-0.43925 0,-0.14165 0.0376,-0.25735 0.0842,-0.25735 0.0466,0 0.0842,-0.0601 0.0842,-0.13332 0,-0.0732 0.0573,-0.19004 0.12712,-0.25994 0.0698,-0.0699 0.12713,-0.2197 0.12713,-0.33279 0,-0.11312 0.0383,-0.20568 0.0848,-0.20568 0.0466,0 0.0847,-0.0739 0.0847,-0.16433 0,-0.0904 0.0377,-0.18772 0.0842,-0.21652 0.0466,-0.0288 0.0853,-0.14281 0.0853,-0.25373 0,-0.11092 0.0376,-0.22545 0.0842,-0.25425 0.0466,-0.0288 0.0842,-0.10995 0.0842,-0.18035 0,-0.0704 0.0573,-0.18487 0.12712,-0.25477 0.0698,-0.0699 0.12713,-0.2197 0.12713,-0.33279 0,-0.11312 0.0384,-0.20567 0.0848,-0.20567 0.0466,0 0.0847,-0.0577 0.0847,-0.12816 0,-0.0705 0.0384,-0.20361 0.0848,-0.29611 0.0466,-0.0925 0.12238,-0.24391 0.16898,-0.33641 0.0466,-0.0925 0.0858,-0.26432 0.0858,-0.38137 0,-0.11705 0.0287,-0.21314 0.0636,-0.21343 0.0964,-8.1e-4 0.35967,-0.49902 0.35967,-0.68058 0,-0.0879 0.0764,-0.29565 0.1695,-0.46147 0.0931,-0.16581 0.1695,-0.39556 0.1695,-0.51056 0,-0.11503 0.0287,-0.20951 0.0636,-0.20981 0.10156,-8.5e-4 0.35974,-0.5038 0.36174,-0.70486 0.001,-0.10101 0.0763,-0.27891 0.16743,-0.39533 0.0911,-0.11642 0.16643,-0.31301 0.16743,-0.43718 0.001,-0.12418 0.0302,-0.23875 0.0651,-0.25425 0.10042,-0.0446 0.35967,-0.54833 0.35967,-0.69866 0,-0.0749 0.0338,-0.20229 0.0749,-0.28319 0.0411,-0.0809 0.12192,-0.26131 0.17932,-0.40101 0.0574,-0.1397 0.13326,-0.31255 0.16846,-0.38395 0.0352,-0.0714 0.0911,-0.25224 0.12403,-0.40205 0.0329,-0.14981 0.0946,-0.27233 0.13746,-0.27233 0.0428,0 0.078,-0.0764 0.078,-0.1695 0,-0.0931 0.0377,-0.16898 0.0842,-0.16898 0.0466,0 0.0853,-0.11623 0.0853,-0.25787 0,-0.14165 0.0759,-0.33925 0.16898,-0.43925 0.0931,-0.1 0.1695,-0.28869 0.1695,-0.41961 0,-0.13091 0.0287,-0.23845 0.0636,-0.23875 0.0964,-8.1e-4 0.35967,-0.49954 0.35967,-0.68109 0,-0.0879 0.0764,-0.29565 0.16949,-0.46147 0.0931,-0.16582 0.1695,-0.37185 0.1695,-0.45785 0,-0.086 0.0567,-0.20349 0.12661,-0.26149 0.0698,-0.058 0.12712,-0.17718 0.12712,-0.26458 0,-0.0875 0.0383,-0.15865 0.0847,-0.15865 0.0466,0 0.0842,-0.11455 0.0842,-0.25425 0,-0.1397 0.0388,-0.25373 0.0853,-0.25373 0.0466,0 0.0842,-0.0576 0.0842,-0.12815 0,-0.0705 0.0347,-0.19454 0.076,-0.27544 0.0414,-0.0809 0.14186,-0.29949 0.22376,-0.48576 0.0819,-0.18627 0.18147,-0.40496 0.22117,-0.48576 0.0397,-0.0809 0.0724,-0.20442 0.0724,-0.27492 0,-0.0704 0.0383,-0.12815 0.0848,-0.12815 0.0466,0 0.0847,-0.11213 0.0847,-0.24908 0,-0.13696 0.0376,-0.27248 0.0842,-0.30128 0.0466,-0.0288 0.0847,-0.10995 0.0847,-0.18035 0,-0.0704 0.0572,-0.18538 0.12713,-0.25528 0.0698,-0.0698 0.12712,-0.19815 0.12712,-0.28525 0,-0.0871 0.0384,-0.18153 0.0847,-0.21033 0.0466,-0.0288 0.0848,-0.12664 0.0848,-0.21704 0,-0.0904 0.0384,-0.16433 0.0847,-0.16433 0.0466,0 0.0848,-0.13312 0.0848,-0.2961 0,-0.16298 0.0336,-0.29611 0.0749,-0.29611 0.0413,0 0.13809,-0.14319 0.21549,-0.31781 0.0774,-0.17463 0.17687,-0.38367 0.22117,-0.46457 0.12376,-0.22582 0.0964,-0.53926 -0.0589,-0.66818 -0.11693,-0.0971 -1.80804,-0.11627 -10.26604,-0.11627 H 119.5269 l -0.0269,0.23565 c -0.0279,0.24299 0.14612,0.73845 0.25942,0.73845 0.0352,0 0.0641,0.072 0.0641,0.1602 0,0.0882 0.0942,0.25001 0.2098,0.35967 0.11555,0.10966 0.21108,0.27813 0.21188,0.37413 8.1e-4,0.096 0.0774,0.25605 0.17053,0.35605 0.0931,0.1 0.1695,0.24647 0.1695,0.32557 0,0.079 0.0955,0.26853 0.21187,0.42116 0.11646,0.15263 0.21136,0.33731 0.21136,0.41031 0,0.073 0.0377,0.13281 0.0842,0.13281 0.0466,0 0.0842,0.0764 0.0842,0.1695 0,0.0931 0.0377,0.16898 0.0842,0.16898 0.0466,0 0.0885,0.0668 0.0915,0.14831 0.003,0.0815 0.0789,0.26234 0.16795,0.40204 0.089,0.1397 0.19988,0.33964 0.24598,0.44442 l 0.0832,0.19069 h 5.25136 c 3.22491,0 5.25136,0.0307 5.25136,0.0796 0,0.0438 -0.0379,0.10349 -0.0842,0.13229 -0.0466,0.0288 -0.0842,0.14523 -0.0842,0.2589 0,0.11367 -0.0385,0.2067 -0.0848,0.2067 -0.0466,0 -0.0847,0.0759 -0.0847,0.16899 0,0.0931 -0.0375,0.16949 -0.0832,0.16949 -0.0456,0 -0.10853,0.10501 -0.13953,0.23307 -0.031,0.12806 -0.12712,0.33373 -0.21342,0.45733 -0.0863,0.12361 -0.1571,0.32355 -0.1571,0.44442 0,0.12087 -0.0371,0.22014 -0.0837,0.22014 -0.0466,0 -0.0842,0.0579 -0.0842,0.12868 0,0.0708 -0.0955,0.27912 -0.21187,0.46353 -0.11636,0.18442 -0.21188,0.43147 -0.21188,0.54881 0,0.11731 -0.0285,0.21358 -0.0636,0.21394 -0.0859,9e-4 -0.27543,0.42006 -0.27543,0.60926 0,0.0839 -0.0292,0.15266 -0.0641,0.15296 -0.0903,7.6e-4 -0.35974,0.49379 -0.36174,0.6625 -0.001,0.0777 -0.0763,0.23654 -0.16743,0.35295 -0.091,0.11642 -0.16643,0.29886 -0.16743,0.40566 -0.001,0.10681 -0.097,0.29716 -0.21342,0.42271 -0.11636,0.12555 -0.21188,0.31436 -0.21188,0.41961 0,0.10527 -0.0383,0.1912 -0.0847,0.1912 -0.0466,0 -0.0837,0.0739 -0.0837,0.16434 0,0.0904 -0.0392,0.18772 -0.0858,0.21652 -0.0466,0.0288 -0.0837,0.12612 -0.0837,0.21652 0,0.0903 -0.0392,0.16434 -0.0858,0.16434 -0.0466,0 -0.0837,0.0693 -0.0837,0.15347 0,0.0842 -0.0561,0.2269 -0.12454,0.3173 -0.0684,0.0904 -0.12561,0.23114 -0.12661,0.31264 -0.002,0.0815 -0.0418,0.14831 -0.0884,0.14831 -0.0466,0 -0.0837,0.0949 -0.0837,0.21136 0,0.11636 -0.0384,0.21187 -0.0847,0.21187 -0.0466,0 -0.0847,0.0764 -0.0847,0.1695 0,0.0931 -0.0383,0.16898 -0.0847,0.16898 -0.0466,0 -0.0847,0.13364 -0.0847,0.29662 0,0.16534 -0.0428,0.29611 -0.0966,0.29611 -0.1528,0 -0.32101,0.27492 -0.32401,0.52917 -0.001,0.12806 -0.0402,0.23306 -0.0868,0.23306 -0.0466,0 -0.0847,0.0759 -0.0847,0.16898 0,0.0931 -0.0378,0.1695 -0.0842,0.1695 -0.0466,0 -0.0853,0.0954 -0.0853,0.21187 0,0.1164 -0.0287,0.21159 -0.0636,0.21188 -0.1077,9.1e-4 -0.35967,0.50968 -0.35967,0.72605 0,0.11267 -0.0292,0.20531 -0.0641,0.20567 -0.0843,8.8e-4 -0.27491,0.41792 -0.27491,0.60152 0,0.08 -0.0305,0.15813 -0.0682,0.17363 -0.0845,0.0348 -0.524,0.9138 -0.524,1.048 0,0.13246 -0.24606,0.61636 -0.34416,0.67696 -0.0436,0.027 -0.0801,0.1438 -0.0801,0.25941 0,0.11562 -0.0759,0.29171 -0.16898,0.39171 -0.0931,0.1 -0.1695,0.25323 -0.1695,0.34003 0,0.0868 -0.0954,0.29789 -0.21187,0.46922 -0.11636,0.17132 -0.21136,0.35225 -0.21136,0.40205 0,0.14039 -0.20444,0.54599 -0.27544,0.54673 -0.0349,3.6e-4 -0.0636,0.0993 -0.0636,0.22014 0,0.12087 -0.0711,0.32133 -0.15813,0.44494 -0.087,0.12361 -0.18722,0.31777 -0.22272,0.43201 -0.0355,0.11425 -0.11665,0.26031 -0.18035,0.32401 -0.098,0.0979 -0.11576,0.0884 -0.11576,-0.0599 0,-0.0965 -0.0383,-0.17518 -0.0847,-0.17518 -0.0466,0 -0.0847,-0.13365 -0.0847,-0.29663 0,-0.16299 -0.0346,-0.2961 -0.0775,-0.2961 -0.0429,0 -0.10273,-0.11405 -0.13333,-0.25322 -0.0306,-0.13916 -0.0903,-0.27467 -0.13332,-0.30127 -0.043,-0.0266 -0.078,-0.16019 -0.078,-0.29714 0,-0.13695 -0.0389,-0.24908 -0.0853,-0.24908 -0.0466,0 -0.0842,-0.0959 -0.0842,-0.21291 0,-0.11705 -0.0338,-0.27876 -0.0749,-0.35966 -0.0411,-0.0809 -0.12095,-0.26131 -0.17725,-0.40101 -0.0563,-0.1397 -0.15568,-0.36168 -0.22118,-0.49351 -0.0656,-0.13184 -0.11937,-0.29409 -0.11937,-0.36019 0,-0.066 -0.0384,-0.11989 -0.0847,-0.11989 -0.0466,0 -0.0847,-0.13364 -0.0847,-0.29662 0,-0.16298 -0.0383,-0.29611 -0.0847,-0.29611 -0.0466,0 -0.0847,-0.0764 -0.0847,-0.1695 0,-0.0931 -0.0376,-0.16898 -0.0842,-0.16898 -0.0466,0 -0.0847,-0.0979 -0.0847,-0.21704 0,-0.1191 -0.0955,-0.38679 -0.21187,-0.59531 -0.11646,-0.20852 -0.21188,-0.4924 -0.21188,-0.63045 0,-0.13805 -0.0376,-0.25063 -0.0842,-0.25063 -0.0466,0 -0.0847,-0.0739 -0.0847,-0.16433 0,-0.0904 -0.0383,-0.18825 -0.0847,-0.21705 -0.0466,-0.0288 -0.0842,-0.16544 -0.0842,-0.30385 0,-0.14559 -0.0541,-0.27204 -0.12764,-0.30024 -0.0699,-0.0268 -0.12661,-0.14063 -0.12661,-0.2527 0,-0.11206 -0.0333,-0.26947 -0.0744,-0.35037 -0.12032,-0.23653 -0.23712,-0.54427 -0.35657,-0.94154 -0.0614,-0.20407 -0.16078,-0.42071 -0.22118,-0.48111 -0.0603,-0.0604 -0.10955,-0.22647 -0.10955,-0.36949 0,-0.14303 -0.0383,-0.25993 -0.0847,-0.25993 -0.0466,0 -0.0837,-0.0764 -0.0837,-0.1695 0,-0.0931 -0.0389,-0.1695 -0.0853,-0.1695 -0.0466,0 -0.0842,-0.13312 -0.0842,-0.2961 0,-0.16298 -0.0379,-0.29662 -0.0842,-0.29662 -0.0466,0 -0.0842,-0.077 -0.0842,-0.17157 0,-0.0946 -0.0567,-0.19438 -0.12661,-0.22118 -0.072,-0.0276 -0.12712,-0.1536 -0.12712,-0.29093 0,-0.1333 -0.0764,-0.37782 -0.1695,-0.54364 -0.0931,-0.16582 -0.1695,-0.39205 -0.1695,-0.50229 0,-0.11025 -0.0945,-0.3663 -0.21032,-0.56896 -0.11587,-0.20266 -0.21131,-0.45385 -0.21187,-0.55862 -6e-4,-0.1048 -0.0392,-0.19069 -0.0858,-0.19069 -0.0466,0 -0.0842,-0.0931 -0.0842,-0.20671 0,-0.11367 -0.0376,-0.2301 -0.0842,-0.2589 -0.0466,-0.0288 -0.0847,-0.14522 -0.0847,-0.25889 0,-0.11367 -0.0384,-0.20671 -0.0847,-0.20671 -0.0466,0 -0.0847,-0.0827 -0.0847,-0.18345 0,-0.22285 -0.26002,-0.83251 -0.35502,-0.83251 -0.0376,0 -0.0682,-0.15274 -0.0682,-0.339 0,-0.18627 -0.0378,-0.33848 -0.0842,-0.33848 -0.0466,0 -0.0842,-0.0739 -0.0842,-0.16433 0,-0.0904 -0.0384,-0.18772 -0.0847,-0.21652 -0.0466,-0.0288 -0.0847,-0.12514 -0.0847,-0.21394 0,-0.20063 -0.26091,-0.75965 -0.35451,-0.75965 -0.038,0 -0.0687,-0.13364 -0.0687,-0.29662 0,-0.16298 -0.0377,-0.2961 -0.0842,-0.2961 -0.0466,0 -0.0842,-0.0764 -0.0842,-0.1695 0,-0.0931 -0.0378,-0.1695 -0.0842,-0.1695 -0.0466,0 -0.0842,-0.10827 -0.0842,-0.24081 0,-0.27046 -0.22433,-0.77515 -0.34468,-0.77515 -0.0432,0 -0.0791,-0.15221 -0.0791,-0.33848 0,-0.18626 -0.0377,-0.33848 -0.0842,-0.33848 -0.0466,0 -0.0842,-0.0931 -0.0842,-0.20671 0,-0.11367 -0.0386,-0.23061 -0.0847,-0.25941 -0.0466,-0.0288 -0.0847,-0.12656 -0.0847,-0.21756 0,-0.16596 -0.0204,-0.21914 -0.28215,-0.74156 -0.0777,-0.15512 -0.14108,-0.33594 -0.14108,-0.40204 0,-0.066 -0.0376,-0.12041 -0.0842,-0.12041 -0.0466,0 -0.0847,-0.11286 -0.0847,-0.25114 0,-0.13829 -0.0696,-0.37641 -0.15503,-0.52917 -0.0854,-0.15276 -0.18152,-0.38251 -0.21342,-0.51056 l -0.0579,-0.23306 z m 62.78324,0.002 c -0.19464,0 -0.38918,0.0276 -0.42323,0.0827 -0.0288,0.0466 -0.16051,0.0847 -0.29248,0.0847 -0.28463,0 -0.34262,0.11713 -0.34262,0.68937 0,0.43173 -0.30859,1.13939 -0.55965,1.28364 -0.0649,0.0372 -0.11783,0.11427 -0.11783,0.17157 0,0.0573 -0.0759,0.15924 -0.16898,0.22634 -0.0931,0.0671 -0.1695,0.17088 -0.1695,0.23048 0,0.0596 -0.0384,0.108 -0.0848,0.108 -0.0466,0 -0.0849,0.0477 -0.0853,0.10594 -4e-4,0.0582 -0.13405,0.24603 -0.29663,0.41754 -0.16258,0.17152 -0.29558,0.35448 -0.29558,0.40618 0,0.0517 -0.0949,0.19639 -0.21136,0.32194 -0.11647,0.12555 -0.21187,0.25924 -0.21187,0.29714 0,0.0379 -0.11426,0.19071 -0.25374,0.33952 -0.13949,0.14882 -0.25352,0.33759 -0.25373,0.41909 -2.2e-4,0.0815 -0.0533,0.14831 -0.11782,0.14831 -0.0645,0 -0.17766,0.12358 -0.25166,0.27492 -0.074,0.15134 -0.28771,0.44674 -0.47439,0.65629 -0.18668,0.20955 -0.33982,0.42859 -0.34055,0.48679 -7e-4,0.0582 -0.0331,0.10594 -0.0718,0.10594 -0.0387,0 -0.12459,0.10237 -0.19069,0.22789 -0.0661,0.12553 -0.24369,0.36366 -0.39481,0.52917 -0.15112,0.16552 -0.27463,0.33891 -0.27491,0.38551 -2.8e-4,0.0466 -0.0865,0.1868 -0.19121,0.31109 -0.27902,0.33117 -0.51179,0.65142 -0.65577,0.90227 -0.0699,0.1217 -0.25059,0.3561 -0.40153,0.52038 -0.15094,0.16428 -0.27502,0.34591 -0.27543,0.40411 -4e-4,0.0582 -0.0321,0.10594 -0.0708,0.10594 -0.0387,0 -0.1234,0.105 -0.1881,0.23306 -0.0647,0.12806 -0.17571,0.29472 -0.24701,0.37052 -0.22729,0.24165 -0.38042,0.45086 -0.50385,0.68885 -0.0661,0.12741 -0.15005,0.23151 -0.18655,0.23151 -0.0365,0 -0.12941,0.13364 -0.20671,0.29662 -0.0773,0.16299 -0.1747,0.2961 -0.216,0.2961 -0.0412,0 -0.0749,0.0513 -0.0749,0.11369 0,0.0624 -0.1713,0.29493 -0.38085,0.51677 -0.20955,0.22184 -0.38127,0.44693 -0.38137,0.50023 -1.1e-4,0.0533 -0.11603,0.23026 -0.25787,0.39325 -0.14185,0.16298 -0.32134,0.40111 -0.39894,0.52917 -0.0776,0.12806 -0.17124,0.23306 -0.20774,0.23306 -0.0365,0 -0.0667,0.0611 -0.0667,0.13591 0,0.0748 -0.0949,0.21071 -0.21136,0.30231 -0.11646,0.0916 -0.21187,0.23159 -0.21187,0.31109 0,0.0795 -0.0764,0.19955 -0.1695,0.26665 -0.0931,0.0671 -0.16898,0.16754 -0.16898,0.22324 0,0.0557 -0.0287,0.11421 -0.0636,0.12971 -0.11687,0.052 -0.69867,0.81745 -0.69867,0.91932 0,0.0553 -0.0949,0.17505 -0.21136,0.26665 -0.11646,0.0916 -0.21187,0.20173 -0.21187,0.24443 0,0.0897 -0.76768,1.12362 -0.86558,1.16582 -0.036,0.0155 -0.0656,0.092 -0.0656,0.17002 0,0.078 -0.0764,0.18985 -0.1695,0.24805 -0.0931,0.0582 -0.16898,0.16252 -0.16898,0.23202 0,0.0695 -0.0347,0.12609 -0.077,0.12609 -0.0423,0 -0.18548,0.17139 -0.31781,0.38086 -0.13234,0.20947 -0.26896,0.38077 -0.30386,0.38085 -0.0349,8e-5 -0.0636,0.0616 -0.0636,0.13643 0,0.0748 -0.0954,0.21071 -0.21187,0.30231 -0.11637,0.0916 -0.21136,0.21186 -0.21136,0.26716 0,0.0553 -0.13298,0.25246 -0.29507,0.43822 -0.16209,0.18575 -0.29521,0.37688 -0.29611,0.42478 -8.9e-4,0.0479 -0.0779,0.14219 -0.17104,0.20929 -0.0931,0.0671 -0.16899,0.16624 -0.16899,0.22014 0,0.0539 -0.0526,0.14152 -0.11679,0.19482 -0.0923,0.0765 -0.12776,0.0564 -0.16846,-0.0956 -0.0284,-0.10575 -0.0521,-1.93313 -0.0527,-4.06073 -7e-4,-2.48641 -0.0314,-3.8871 -0.0858,-3.9207 -0.0554,-0.0342 -0.0847,-2.42707 -0.0847,-6.90242 0,-6.6857 -0.004,-6.85206 -0.16382,-6.93756 -0.1763,-0.0944 -6.15108,-0.12863 -6.39082,-0.0367 -0.0736,0.0283 -0.13384,0.1075 -0.13384,0.1757 0,0.0682 -0.0572,0.18073 -0.12713,0.25063 -0.0699,0.0699 -0.1266,0.20224 -0.1266,0.29404 0,0.0918 -0.0764,0.24882 -0.1695,0.34882 -0.0931,0.1 -0.1695,0.2887 -0.1695,0.41961 0,0.13092 -0.0382,0.23771 -0.0847,0.23771 -0.0466,0 -0.0848,0.0764 -0.0848,0.1695 0,0.0931 -0.0286,0.1695 -0.0636,0.1695 -0.035,0 -0.17119,0.23813 -0.30283,0.52917 -0.13165,0.29104 -0.31254,0.6757 -0.40204,0.85472 -0.0895,0.17903 -0.16278,0.39346 -0.16278,0.47646 0,0.083 -0.0572,0.19832 -0.12712,0.25632 -0.0699,0.058 -0.12661,0.16943 -0.12661,0.24753 0,0.31013 0.16488,0.34519 1.62264,0.34519 h 1.42007 l 0.0424,2.26447 c 0.0234,1.24559 0.0723,4.10128 0.10852,6.34586 0.0497,3.07874 0.0918,4.10703 0.17157,4.18683 0.0828,0.0828 0.10593,1.52621 0.10593,6.64352 0,5.15085 0.0225,6.54678 0.10594,6.58048 0.0582,0.0235 1.2555,0.0456 2.66082,0.0496 2.89491,0.008 2.82153,0.0239 2.82153,-0.63458 0,-0.20623 0.0384,-0.37466 0.0848,-0.37466 0.0466,0 0.0847,-0.0488 0.0847,-0.108 0,-0.0592 0.16433,-0.28643 0.36536,-0.5054 0.20097,-0.21889 0.42019,-0.50022 0.48679,-0.62476 0.0667,-0.12454 0.24494,-0.35037 0.39636,-0.50178 0.15141,-0.15142 0.2765,-0.30767 0.2775,-0.34727 10e-4,-0.0396 0.17248,-0.26223 0.38034,-0.49506 0.20786,-0.23283 0.37835,-0.45404 0.37878,-0.49144 4.3e-4,-0.0375 0.11476,-0.19019 0.25425,-0.339 0.13948,-0.14882 0.25403,-0.29741 0.25425,-0.33021 2.1e-4,-0.0328 0.087,-0.14684 0.19275,-0.25373 0.10579,-0.10689 0.28381,-0.32795 0.39585,-0.49093 0.11203,-0.16298 0.26373,-0.35828 0.33693,-0.43408 0.24462,-0.25316 0.42943,-0.49859 0.42943,-0.56999 0,-0.0389 0.13311,-0.20787 0.2961,-0.37569 0.16298,-0.16781 0.29663,-0.35499 0.29663,-0.41599 0,-0.061 0.13258,-0.22455 0.29455,-0.36381 0.16198,-0.13925 0.29511,-0.30246 0.29611,-0.36276 0.001,-0.0603 0.0875,-0.1964 0.19223,-0.30231 0.10477,-0.10591 0.26709,-0.2998 0.36019,-0.43047 0.0931,-0.13067 0.2549,-0.32615 0.35967,-0.43459 0.1048,-0.10844 0.19017,-0.21788 0.19017,-0.24288 0,-0.0439 0.26873,-0.3755 0.4873,-0.60203 0.0582,-0.0603 0.10542,-0.13325 0.10542,-0.16175 0,-0.0286 0.0764,-0.13358 0.1695,-0.23358 0.0931,-0.1 0.1695,-0.2276 0.1695,-0.2837 0,-0.056 0.0535,-0.1227 0.11886,-0.1478 0.0654,-0.0251 0.24383,-0.22938 0.39636,-0.45372 0.15254,-0.22435 0.36589,-0.49173 0.47387,-0.59428 0.10794,-0.10248 0.19585,-0.23623 0.19585,-0.29713 0,-0.0609 0.0764,-0.15833 0.1695,-0.21653 0.0931,-0.0582 0.1695,-0.14497 0.1695,-0.19327 0,-0.0483 0.0854,-0.17682 0.19017,-0.28525 0.10477,-0.10844 0.26708,-0.30309 0.36018,-0.43305 0.0931,-0.12997 0.20864,-0.27765 0.25684,-0.32815 0.0482,-0.0505 0.20097,-0.24423 0.33899,-0.43046 0.13801,-0.18623 0.31744,-0.41251 0.39894,-0.50281 0.0815,-0.0903 0.14832,-0.20905 0.14832,-0.26355 0,-0.0546 0.0949,-0.17047 0.21135,-0.25787 0.11646,-0.0874 0.21188,-0.20583 0.21188,-0.26303 0,-0.0572 0.0764,-0.14502 0.16949,-0.19482 0.0931,-0.0498 0.16899,-0.16533 0.16899,-0.25683 0,-0.0915 0.0477,-0.16686 0.10593,-0.16743 0.0918,-9.1e-4 0.21382,-0.14865 0.61392,-0.74311 0.0466,-0.0692 0.20803,-0.26325 0.35915,-0.4315 0.15112,-0.16825 0.27522,-0.3361 0.27544,-0.3731 2.3e-4,-0.037 0.0955,-0.17004 0.21187,-0.29559 0.11647,-0.12555 0.21187,-0.25719 0.21187,-0.29249 0,-0.0353 0.15221,-0.226 0.33848,-0.42375 0.18626,-0.19775 0.339,-0.38651 0.339,-0.41961 0,-0.0331 0.0949,-0.1554 0.21136,-0.27182 0.11647,-0.11641 0.21187,-0.23193 0.21187,-0.25683 0,-0.0502 0.21678,-0.32738 0.44442,-0.56792 0.0815,-0.0861 0.14831,-0.19043 0.14831,-0.23203 0,-0.0416 0.0561,-0.0975 0.12506,-0.12403 0.10937,-0.042 0.13004,0.47314 0.16174,4.03387 0.02,2.24498 0.0786,6.76083 0.13023,10.03504 0.0831,5.27364 0.11002,5.97773 0.23306,6.16552 l 0.13849,0.21187 2.42104,-0.0269 c 1.97015,-0.0219 2.45616,-0.0503 2.61121,-0.15296 l 0.19017,-0.12609 v -3.78478 c 0,-2.43176 -0.0303,-3.80338 -0.0848,-3.83698 -0.0545,-0.0337 -0.0847,-1.43878 -0.0847,-3.93723 0,-2.49838 -0.0297,-3.90311 -0.0842,-3.93671 -0.0554,-0.0343 -0.0848,-2.64002 -0.0848,-7.54062 0,-4.1184 -0.0291,-7.48792 -0.0646,-7.48792 -0.0355,0 -0.10232,-0.0859 -0.14832,-0.19068 -0.0917,-0.20904 -0.43106,-0.30016 -0.57619,-0.15503 -0.12016,0.12 -3.15888,0.12782 -3.23288,0.007 -0.034,-0.0551 -0.22858,-0.0827 -0.42323,-0.0827 z m -118.849586,0.16485 v 5.2e-4 5.1e-4 5.2e-4 c -0.547673,0.002 -1.080554,0.0336 -1.080554,0.0915 0,0.0499 -0.05727,0.14766 -0.127124,0.21756 -0.06985,0.0699 -0.127124,0.19815 -0.127124,0.28525 0,0.0871 -0.03818,0.18204 -0.08475,0.21084 -0.04657,0.0288 -0.08475,0.12612 -0.08475,0.21652 0,0.0904 -0.03766,0.16433 -0.08423,0.16433 -0.04657,0 -0.08475,0.0971 -0.08475,0.21601 0,0.11889 -0.09546,0.3563 -0.211874,0.52762 -0.116417,0.17132 -0.211356,0.41733 -0.211356,0.54622 0,0.12889 -0.02863,0.23425 -0.06356,0.23461 -0.08591,8.9e-4 -0.275436,0.42005 -0.275436,0.60926 0,0.0839 -0.02902,0.15245 -0.06459,0.15245 -0.07862,0 -0.358635,0.62815 -0.358635,0.8046 0,0.0695 -0.03818,0.12661 -0.08475,0.12661 -0.04657,0 -0.08475,0.0739 -0.08475,0.16433 0,0.0904 -0.03818,0.18772 -0.08475,0.21652 -0.127942,0.0791 -0.101315,0.30645 0.05581,0.48008 0.126781,0.14013 0.299816,0.15503 1.820044,0.15503 h 1.680517 v 12.82712 12.82713 h 1.439189 c 0.903104,0 1.439189,0.0317 1.439189,0.0848 0,0.0526 0.465832,0.0842 1.227832,0.0842 h 1.227832 v -4.57182 -4.57181 h 2.414839 2.415357 l 0.07648,0.19017 c 0.0421,0.10477 0.268246,0.40018 0.502812,0.65629 0.234559,0.25612 0.427831,0.50504 0.429431,0.55294 0.0016,0.0479 0.07895,0.14219 0.172082,0.20929 0.09313,0.0671 0.169499,0.16647 0.169499,0.22117 0,0.0546 0.105003,0.21194 0.233061,0.34934 0.128051,0.1374 0.308912,0.35574 0.402042,0.48524 0.09313,0.12951 0.254893,0.32409 0.359668,0.43253 0.10478,0.10844 0.190686,0.22877 0.190686,0.26717 0,0.0384 0.07585,0.12462 0.168982,0.19172 0.09313,0.0671 0.169499,0.16559 0.169499,0.21859 0,0.053 0.09546,0.16788 0.211873,0.25528 0.116417,0.0874 0.211357,0.20682 0.211357,0.26562 0,0.0588 0.03013,0.10697 0.06666,0.10697 0.03653,0 0.128539,0.10578 0.204639,0.23461 0.0761,0.12883 0.255969,0.35679 0.399459,0.50694 0.143489,0.15014 0.260449,0.31025 0.260449,0.35605 0,0.0458 0.171822,0.25502 0.381372,0.46457 0.20955,0.20955 0.380856,0.41749 0.380856,0.46199 0,0.0445 0.133122,0.222 0.296106,0.39481 0.162976,0.17281 0.296622,0.3337 0.296622,0.3576 0,0.0949 0.55596,0.77521 0.63562,0.77721 0.04684,0.001 0.133927,0.11282 0.193787,0.24805 0.05986,0.13522 0.240465,0.38578 0.401526,0.55656 0.161061,0.17077 0.293005,0.36499 0.293005,0.43149 0,0.0666 0.07637,0.12093 0.169499,0.12093 0.110764,0 0.168982,0.0565 0.168982,0.16329 0,0.0898 0.08591,0.2324 0.190686,0.3173 0.104775,0.0849 0.244495,0.259 0.310575,0.38705 0.06608,0.12806 0.151986,0.23306 0.190686,0.23306 0.0387,0 0.07028,0.038 0.07028,0.0842 0,0.13143 0.356833,0.50849 0.481108,0.50849 0.06145,0 0.111621,0.0811 0.111621,0.18035 0,0.0993 0.06855,0.24251 0.152445,0.31781 0.08389,0.0753 0.264226,0.28916 0.401009,0.47543 0.136791,0.18627 0.315899,0.40012 0.397909,0.47542 0.082,0.0753 0.149345,0.16409 0.149345,0.19689 0,0.0921 0.23072,0.30127 0.332279,0.30127 0.04989,0 0.09095,0.0764 0.09095,0.1695 0,0.0931 0.02962,0.1695 0.06615,0.1695 0.03653,0 0.129055,0.10526 0.205155,0.23409 0.0761,0.12883 0.255452,0.3568 0.398942,0.50695 0.143489,0.15014 0.260966,0.31152 0.260966,0.35812 0,0.0466 0.07637,0.13197 0.169499,0.19017 0.09313,0.0582 0.169499,0.15487 0.169499,0.21497 0,0.0601 0.05676,0.13133 0.126607,0.15813 0.06985,0.0268 0.127124,0.0853 0.127124,0.13022 0,0.1415 0.235067,0.32402 0.417545,0.32402 0.09646,0 0.175184,0.0376 0.175184,0.0842 0,0.0466 0.13122,0.0848 0.291455,0.0848 0.160229,0 0.314868,0.0382 0.343648,0.0847 0.02878,0.0466 0.197871,0.0848 0.375688,0.0848 0.184084,0 0.368377,0.0548 0.428397,0.12712 0.05797,0.0698 0.20579,0.12874 0.328146,0.13074 0.267046,0.004 0.99397,0.1894 1.079003,0.2744 0.0333,0.0333 0.244667,0.0605 0.469739,0.0605 0.225072,0 0.409278,0.0386 0.409278,0.0848 0,0.0466 0.07872,0.0847 0.175183,0.0847 0.09646,0 0.232457,0.0572 0.302307,0.12713 0.07414,0.0741 0.281166,0.1266 0.497127,0.1266 0.203475,0 0.393417,0.0382 0.422197,0.0847 0.02878,0.0466 0.164321,0.0848 0.301273,0.0848 0.136952,0 0.249081,0.0382 0.249081,0.0847 0,0.0466 0.171822,0.0848 0.381372,0.0848 0.209543,0 0.380855,0.0382 0.380855,0.0847 0,0.0466 0.109398,0.0848 0.243396,0.0848 0.133999,0 0.291363,0.0567 0.349333,0.12661 0.06002,0.0723 0.244305,0.12712 0.428397,0.12712 0.177816,0 0.346908,0.0384 0.375688,0.0848 v -5.2e-4 c 0.02878,0.0466 0.202505,0.0847 0.386023,0.0847 0.329563,0 0.33383,-0.004 0.33383,-0.31987 0,-0.22284 -0.05157,-0.35684 -0.169499,-0.44184 -0.09313,-0.0671 -0.169499,-0.16192 -0.169499,-0.21032 0,-0.0484 -0.09494,-0.19071 -0.211356,-0.31626 -0.116417,-0.12555 -0.211874,-0.26818 -0.211874,-0.31678 0,-0.0486 -0.03818,-0.0884 -0.08475,-0.0884 -0.04657,0 -0.08423,-0.0539 -0.08423,-0.11989 0,-0.066 -0.0296,-0.13281 -0.06563,-0.14831 -0.03603,-0.0155 -0.255068,-0.27507 -0.486792,-0.57723 -0.231724,-0.30216 -0.459342,-0.59339 -0.505912,-0.64699 -0.04657,-0.0536 -0.161118,-0.20386 -0.254248,-0.33383 -0.09313,-0.12997 -0.254893,-0.323 -0.359668,-0.42891 -0.10477,-0.10591 -0.190686,-0.22295 -0.190686,-0.26045 0,-0.0375 -0.09494,-0.17107 -0.211357,-0.29662 -0.116416,-0.12555 -0.211873,-0.26668 -0.211873,-0.31368 0,-0.0471 -0.1241,-0.21109 -0.275435,-0.36432 -0.151342,-0.15324 -0.329245,-0.38285 -0.395325,-0.51056 -0.06608,-0.12772 -0.151469,-0.23255 -0.190169,-0.23255 -0.0387,0 -0.07028,-0.0482 -0.07028,-0.10697 0,-0.0588 -0.09546,-0.17821 -0.211874,-0.26561 -0.116417,-0.0874 -0.211873,-0.1915 -0.211873,-0.231 0,-0.0715 -0.08754,-0.18684 -0.527617,-0.69504 -0.127308,-0.14704 -0.2318,-0.30661 -0.232543,-0.35451 -7.44e-4,-0.0479 -0.07792,-0.14218 -0.171049,-0.20928 -0.09313,-0.0671 -0.169612,-0.16139 -0.170016,-0.20929 -4.04e-4,-0.0479 -0.123981,-0.22046 -0.274919,-0.38344 -0.15093,-0.16298 -0.330245,-0.40441 -0.398425,-0.5364 -0.06818,-0.13199 -0.249549,-0.34987 -0.402559,-0.48421 -0.153009,-0.13435 -0.278019,-0.29562 -0.278019,-0.35812 0,-0.0625 -0.170279,-0.30183 -0.378272,-0.53175 -0.207993,-0.22991 -0.379255,-0.44684 -0.380855,-0.48214 -0.0016,-0.0353 -0.117132,-0.18403 -0.256832,-0.33021 -0.1397,-0.14618 -0.253731,-0.29633 -0.253731,-0.33383 0,-0.0375 -0.09546,-0.16367 -0.211874,-0.28009 -0.116416,-0.11641 -0.211873,-0.2357 -0.211873,-0.2651 0,-0.12641 -0.546559,-0.80099 -0.649056,-0.80099 -0.06196,0 -0.112598,-0.0668 -0.112655,-0.14831 -1e-4,-0.14328 -0.234414,-0.47193 -0.590145,-0.82837 -0.09458,-0.0948 -0.172082,-0.21008 -0.172082,-0.25631 0,-0.0463 -0.07585,-0.13909 -0.168982,-0.20619 -0.09313,-0.0671 -0.169499,-0.16193 -0.169499,-0.21033 0,-0.0484 -0.09546,-0.19071 -0.211873,-0.31626 -0.116416,-0.12555 -0.211357,-0.26227 -0.211357,-0.30437 0,-0.0421 -0.133645,-0.21838 -0.296622,-0.39119 -0.162983,-0.17281 -0.296106,-0.33232 -0.296106,-0.35502 0,-0.0689 -0.543012,-0.74657 -0.656291,-0.81907 -0.05821,-0.0372 -0.105937,-0.12015 -0.105937,-0.18448 0,-0.0644 -0.07585,-0.14145 -0.168982,-0.17105 -0.09313,-0.0296 -0.169498,-0.11314 -0.169498,-0.18604 0,-0.0729 -0.06928,-0.19445 -0.153996,-0.26975 -0.232586,-0.20675 -0.294541,-0.43312 -0.118856,-0.43512 0.08003,-0.001 0.332403,-0.17233 0.560689,-0.38085 0.228293,-0.20853 0.44907,-0.37931 0.49041,-0.37931 0.105916,0 1.338419,-1.28533 1.338419,-1.39578 0,-0.05 0.07637,-0.1458 0.169499,-0.2129 0.09313,-0.0671 0.168982,-0.15536 0.168982,-0.19586 0,-0.0405 0.13364,-0.2292 0.296623,-0.41961 0.162976,-0.19041 0.296106,-0.41553 0.296106,-0.50023 0,-0.0848 0.03818,-0.15399 0.08475,-0.15399 0.04657,0 0.08475,-0.0764 0.08475,-0.1695 0,-0.0931 0.03319,-0.1695 0.0739,-0.1695 0.09783,0 0.687813,-1.1689 0.687813,-1.36271 0,-0.0831 0.03818,-0.1748 0.08475,-0.2036 0.04657,-0.0288 0.08475,-0.12161 0.08475,-0.20671 0,-0.0851 0.05705,-0.26401 0.126607,-0.39739 0.06956,-0.13338 0.126837,-0.32586 0.127124,-0.42788 2.9e-4,-0.10203 0.03818,-0.20891 0.08475,-0.23771 0.04657,-0.0288 0.08475,-0.23827 0.08475,-0.46561 0,-0.22734 0.03818,-0.43732 0.08475,-0.46612 0.04657,-0.0288 0.08475,-0.18342 0.08475,-0.34365 0,-0.16024 0.03818,-0.29094 0.08475,-0.29094 0.05453,0 0.08475,-0.88944 0.08475,-2.49803 0,-1.60867 -0.03022,-2.49753 -0.08475,-2.49753 -0.04657,0 -0.08475,-0.11213 -0.08475,-0.24908 0,-0.13696 -0.03818,-0.27247 -0.08475,-0.30127 -0.04657,-0.0288 -0.08475,-0.222 -0.08475,-0.42943 0,-0.20744 -0.03159,-0.4431 -0.07028,-0.524 -0.03869,-0.0809 -0.133627,-0.27431 -0.211357,-0.42943 -0.07773,-0.15511 -0.141593,-0.33594 -0.141593,-0.40204 0,-0.066 -0.03818,-0.11989 -0.08475,-0.11989 -0.04657,0 -0.0853,-0.0859 -0.0863,-0.19069 -0.001,-0.10478 -0.07637,-0.28562 -0.167432,-0.40204 -0.09106,-0.11642 -0.166432,-0.25014 -0.167432,-0.29714 -0.001,-0.047 -0.09752,-0.18864 -0.21394,-0.31419 -0.116416,-0.12555 -0.211357,-0.27844 -0.211357,-0.34004 0,-0.0616 -0.07637,-0.16699 -0.169498,-0.23409 -0.09313,-0.0671 -0.169499,-0.16776 -0.169499,-0.22376 0,-0.10448 -1.218329,-1.38493 -1.317749,-1.38493 -0.03043,0 -0.136978,-0.0754 -0.236678,-0.16795 -0.406728,-0.37731 -0.69476,-0.59366 -0.79065,-0.59376 -0.05581,-5e-5 -0.204079,-0.0954 -0.329695,-0.21187 -0.125616,-0.11646 -0.291937,-0.21187 -0.369487,-0.21187 -0.07755,0 -0.222491,-0.0759 -0.322461,-0.16899 -0.09997,-0.0931 -0.274395,-0.1695 -0.387056,-0.1695 -0.112662,0 -0.252089,-0.0572 -0.310059,-0.12712 -0.05797,-0.0699 -0.174742,-0.12712 -0.259415,-0.12712 -0.08468,0 -0.177409,-0.0376 -0.206189,-0.0842 -0.02878,-0.0466 -0.183414,-0.0847 -0.343649,-0.0847 -0.160235,0 -0.291455,-0.0333 -0.291455,-0.0739 0,-0.0407 -0.180858,-0.0966 -0.402042,-0.12403 -1.041934,-0.12918 -1.25736,-0.16966 -1.367876,-0.25786 -0.08478,-0.0677 -2.047969,-0.10209 -6.857462,-0.11989 -4.130968,-0.0153 -6.770189,-0.0558 -6.819739,-0.10542 -0.05758,-0.0575 -0.619691,-0.0856 -1.167371,-0.0832 z m 36.341969,0.003 c -0.748673,0 -1.281492,0.0342 -1.312582,0.0847 -0.02878,0.0466 -0.313668,0.0848 -0.633553,0.0848 -0.404109,0 -0.620761,0.0384 -0.709001,0.12661 -0.06985,0.0698 -0.222519,0.12712 -0.339514,0.12712 -0.116995,0 -0.23632,0.0384 -0.2651,0.0847 -0.02878,0.0466 -0.161902,0.0848 -0.296106,0.0848 -0.134203,0 -0.267843,0.0385 -0.296623,0.0847 -0.02878,0.0466 -0.126764,0.0848 -0.218074,0.0848 -0.09131,0 -0.316846,0.095 -0.501262,0.21135 -0.184415,0.11647 -0.393274,0.21188 -0.464054,0.21188 -0.07077,0 -0.128674,0.032 -0.128674,0.0713 0,0.0392 -0.171829,0.15939 -0.381372,0.26717 -0.20955,0.10777 -0.380856,0.24756 -0.380856,0.31006 0,0.0625 -0.06682,0.11424 -0.148311,0.11524 -0.168501,0.002 -0.782898,0.52586 -0.782898,0.66714 0,0.0512 -0.03921,0.093 -0.08733,0.093 -0.102062,0 -0.674894,0.55522 -0.674894,0.65422 0,0.0369 -0.07353,0.1131 -0.163815,0.1695 -0.09029,0.0564 -0.227924,0.23716 -0.305924,0.40152 -0.07799,0.16436 -0.175781,0.29869 -0.217041,0.29869 -0.04126,0 -0.07493,0.0556 -0.07493,0.12299 0,0.0675 -0.09546,0.22527 -0.211873,0.35089 -0.116417,0.12561 -0.211357,0.31775 -0.211357,0.42736 0,0.10957 -0.02863,0.19962 -0.06356,0.19999 -0.100886,0.001 -0.275435,0.43481 -0.275435,0.68471 0,0.12543 -0.05676,0.25019 -0.126608,0.27699 -0.06985,0.0268 -0.127124,0.12369 -0.127124,0.21549 0,0.0918 -0.03818,0.19082 -0.08475,0.21962 -0.04657,0.0288 -0.08475,0.31412 -0.08475,0.63459 0,0.32047 -0.03818,0.6063 -0.08475,0.6351 -0.05012,0.031 -0.08475,0.55108 -0.08475,1.27486 0,0.75867 0.03221,1.22266 0.08475,1.22266 0.04695,0 0.08475,0.22444 0.08475,0.50333 0,0.27665 0.03818,0.52621 0.08475,0.55501 0.04657,0.0288 0.08475,0.12782 0.08475,0.21962 0,0.0918 0.05727,0.18869 0.127124,0.21549 0.07596,0.0291 0.126608,0.15667 0.126608,0.3173 0,0.17146 0.0614,0.31277 0.169498,0.39067 0.09314,0.0671 0.170583,0.18047 0.172083,0.25167 0.0035,0.16753 0.199944,0.42581 0.324011,0.42581 0.05308,0 0.09664,0.0749 0.09664,0.1664 0,0.0915 0.07637,0.20703 0.169499,0.25683 0.09313,0.0499 0.168982,0.14677 0.168982,0.21497 0,0.0682 0.03463,0.12403 0.077,0.12403 0.04237,0 0.24057,0.17131 0.440284,0.38085 0.199707,0.20955 0.405516,0.38086 0.457336,0.38086 0.05182,0 0.1705,0.0709 0.26355,0.15761 0.09305,0.0867 0.357503,0.26146 0.587561,0.38861 0.230058,0.12716 0.454444,0.26621 0.498677,0.30851 0.04424,0.0423 0.132214,0.0765 0.195854,0.0765 0.06364,0 0.240628,0.0955 0.393258,0.21187 0.15263,0.11647 0.339282,0.21187 0.414962,0.21187 0.07568,0 0.273433,0.0759 0.439249,0.16898 0.165816,0.0931 0.414655,0.1695 0.552938,0.1695 0.138284,0 0.251664,0.0352 0.251664,0.0786 0,0.14214 0.526886,0.34468 0.896586,0.34468 0.199648,0 0.386699,0.0383 0.415479,0.0847 0.02878,0.0466 0.200085,0.0848 0.380855,0.0848 0.180771,0 0.352592,0.0382 0.381372,0.0847 0.02878,0.0466 0.389573,0.0848 0.802015,0.0848 0.41499,0 0.76265,0.0372 0.77825,0.0832 0.0497,0.14636 1.0886,0.27396 2.54713,0.31316 0.79518,0.0214 1.418,0.0729 1.418,0.1173 0,0.0435 0.0739,0.0791 0.16433,0.0791 0.0904,0 0.18773,0.0383 0.21653,0.0848 0.0288,0.0466 0.12664,0.0847 0.21704,0.0847 0.0904,0 0.16433,0.0376 0.16433,0.0842 0,0.0466 0.0586,0.0848 0.13074,0.0848 0.0721,0 0.21922,0.0955 0.32711,0.21187 0.10789,0.11637 0.24249,0.21188 0.29869,0.21188 0.14505,0 0.283353,0.15535 0.646483,0.72657 0.17506,0.27538 0.35031,0.51366 0.38911,0.52916 0.0388,0.0155 0.0703,0.12002 0.0703,0.23255 0,0.11251 0.033,0.20464 0.0734,0.20464 0.13443,0 0.21236,0.70642 0.21136,1.90531 -10e-4,1.20692 -0.0793,1.95703 -0.21136,2.03863 -0.0404,0.025 -0.0734,0.15761 -0.0734,0.29456 0,0.13696 -0.0388,0.24908 -0.0847,0.24908 -0.0466,0 -0.0848,0.0764 -0.0848,0.1695 0,0.0931 -0.0351,0.16898 -0.0785,0.16898 -0.0434,0 -0.10641,0.0859 -0.13951,0.19068 -0.0331,0.10478 -0.13055,0.25182 -0.21705,0.32712 -0.0865,0.0753 -0.15761,0.16075 -0.15761,0.18965 0,0.17264 -1.091093,1.24023 -1.267623,1.24023 -0.0478,0 -0.08682,0.0371 -0.08682,0.0837 0,0.0466 -0.0764,0.0853 -0.1695,0.0853 -0.0931,0 -0.16898,0.0378 -0.16898,0.0842 0,0.0466 -0.0775,0.0853 -0.17208,0.0853 -0.0946,0 -0.19386,0.0572 -0.22066,0.12713 -0.0316,0.0823 -0.16318,0.12712 -0.37362,0.12712 -0.17854,0 -0.34792,0.0376 -0.37672,0.0842 -0.0295,0.0477 -0.43654,0.0853 -0.93121,0.0853 -0.49468,0 -0.90233,-0.0376 -0.93173,-0.0853 -0.0288,-0.0466 -0.24017,-0.0842 -0.47025,-0.0842 -0.23009,0 -0.41858,-0.0351 -0.41858,-0.0786 0,-0.095 -0.48073,-0.34374 -0.66921,-0.34674 -0.0743,-0.001 -0.23033,-0.0763 -0.34675,-0.16744 -0.116407,-0.091 -0.274372,-0.16643 -0.350882,-0.16743 -0.07651,-10e-4 -0.159375,-0.0555 -0.184485,-0.12092 -0.02511,-0.0654 -0.229383,-0.24525 -0.453719,-0.39946 -0.484113,-0.33278 -1.805058,-1.66763 -1.805058,-1.82418 0,-0.13953 -0.359908,-0.23188 -0.635103,-0.16278 -0.136667,0.0343 -0.211357,0.11289 -0.211357,0.22118 0,0.0922 -0.05327,0.16743 -0.118339,0.16743 -0.06507,0 -0.569966,0.44228 -1.121895,0.98288 -0.551935,0.54061 -1.247741,1.19771 -1.546159,1.46038 -0.298426,0.26267 -0.934983,0.85881 -1.414384,1.32447 -0.479409,0.46567 -0.978244,0.94568 -1.10846,1.0666 -0.130216,0.12089 -0.300855,0.29225 -0.379305,0.38085 -0.07845,0.0886 -0.278388,0.28812 -0.444417,0.44339 -0.308639,0.28866 -0.383938,0.57517 -0.199988,0.75912 0.07709,0.0771 1.536916,0.10181 6.053377,0.10181 3.911604,0 5.952094,0.029 5.952094,0.0847 l -5.2e-4,5.1e-4 c 0,0.0519 0.4079,0.0842 1.05368,0.0842 0.6109,0 1.07506,-0.0351 1.10536,-0.0842 0.0288,-0.0466 0.29836,-0.0848 0.59893,-0.0848 0.30057,0 0.63173,-0.0444 0.73587,-0.0982 0.41281,-0.21338 0.49071,-0.24081 0.68575,-0.24081 0.11134,0 0.24999,-0.0572 0.307993,-0.12713 0.058,-0.0698 0.15759,-0.1266 0.22169,-0.1266 0.0641,0 0.11679,-0.0384 0.11679,-0.0848 0,-0.0466 0.0955,-0.0847 0.21187,-0.0847 0.11636,0 0.21135,-0.0384 0.21135,-0.0848 0,-0.0466 0.0392,-0.0847 0.0868,-0.0847 0.10279,0 0.78984,-0.43787 0.83044,-0.52917 0.0155,-0.0349 0.0822,-0.0636 0.14779,-0.0636 0.27477,0 2.32183,-2.23158 2.32183,-2.53111 0,-0.0437 0.0315,-0.092 0.0703,-0.10749 0.13062,-0.0523 0.69143,-1.00377 0.69143,-1.17305 0,-0.0922 0.0289,-0.16744 0.0641,-0.16744 0.0352,0 0.11613,-0.12409 0.17983,-0.27543 0.0637,-0.15134 0.16854,-0.38569 0.23254,-0.5209 0.0641,-0.13521 0.11628,-0.31419 0.11628,-0.39739 0,-0.0832 0.0383,-0.17481 0.0847,-0.20361 0.0466,-0.0288 0.0847,-0.16432 0.0847,-0.30127 0,-0.13696 0.0388,-0.24908 0.0847,-0.24908 0.0466,0 0.0847,-0.14979 0.0847,-0.33331 0,-0.18351 0.0362,-0.35646 0.0806,-0.38396 0.0444,-0.0275 0.10689,-0.27805 0.13849,-0.55707 0.0315,-0.27902 0.0903,-0.52742 0.13074,-0.55242 0.0975,-0.06 0.0962,-4.60747 -10e-4,-4.60747 -0.0412,0 -0.10058,-0.20463 -0.13178,-0.45476 -0.0336,-0.26861 -0.12397,-0.52713 -0.22117,-0.63148 -0.0905,-0.0972 -0.16485,-0.21273 -0.16485,-0.25683 0,-0.12457 -1.03011,-1.14327 -1.29088,-1.27641 -0.12806,-0.0654 -0.23306,-0.15044 -0.23306,-0.18914 0,-0.0387 -0.0504,-0.0703 -0.11213,-0.0703 -0.0617,0 -0.19493,-0.0881 -0.29611,-0.19585 -0.10117,-0.1077 -0.31753,-0.24813 -0.48059,-0.31213 -0.16306,-0.064 -0.29662,-0.1471 -0.29662,-0.185 0,-0.0379 -0.0767,-0.0708 -0.17054,-0.0708 -0.17792,0 -0.46104,-0.13539 -0.65784,-0.31626 -0.0633,-0.0582 -0.18627,-0.10697 -0.27337,-0.10697 -0.0871,0 -0.18152,-0.0387 -0.21032,-0.0853 -0.0288,-0.0466 -0.16242,-0.0842 -0.29662,-0.0842 -0.1342,0 -0.26731,-0.0387 -0.29611,-0.0853 -0.0288,-0.0466 -0.16432,-0.0842 -0.30127,-0.0842 -0.13696,0 -0.24907,-0.0366 -0.24907,-0.0832 0,-0.0466 -0.16666,-0.0848 -0.37052,-0.0848 -0.226163,0 -0.412163,-0.0496 -0.476463,-0.12713 -0.058,-0.0698 -0.1742,-0.12712 -0.2589,-0.12712 -0.0847,0 -0.1779,-0.0384 -0.2067,-0.0848 -0.0288,-0.0466 -0.18381,-0.0847 -0.34468,-0.0847 -0.16086,0 -0.36794,-0.0385 -0.46044,-0.0848 -0.0925,-0.0466 -0.24392,-0.12238 -0.33642,-0.16898 -0.0925,-0.0466 -0.32396,-0.0842 -0.51418,-0.0842 -0.19455,0 -0.40144,-0.0557 -0.47284,-0.12713 -0.06979,-0.0698 -0.19815,-0.12712 -0.28525,-0.12712 -0.0871,0 -0.18204,-0.0384 -0.21084,-0.0848 -0.0288,-0.0466 -0.2216,-0.0842 -0.4284,-0.0842 -0.2068,0 -0.37568,-0.0383 -0.37568,-0.0848 0,-0.0466 -0.0739,-0.0847 -0.16434,-0.0847 -0.0904,0 -0.18772,-0.0383 -0.21652,-0.0848 -0.0288,-0.0466 -0.2006,-0.0847 -0.38137,-0.0847 -0.18077,0 -0.34936,-0.0334 -0.37466,-0.0744 -0.0634,-0.10262 -0.83737,-0.34882 -1.09657,-0.34882 -0.116557,0 -0.235286,-0.0381 -0.264066,-0.0847 -0.02878,-0.0466 -0.143328,-0.0848 -0.254248,-0.0848 -0.11092,0 -0.224951,-0.0381 -0.253731,-0.0847 -0.02878,-0.0466 -0.141252,-0.0848 -0.249598,-0.0848 -0.108338,0 -0.305868,-0.057 -0.439249,-0.1266 -0.133381,-0.0696 -0.310851,-0.12633 -0.394291,-0.12661 -0.08344,-2.9e-4 -0.23386,-0.0769 -0.33383,-0.17002 -0.09997,-0.0931 -0.230915,-0.1695 -0.291455,-0.1695 -0.128593,0 -0.38714,-0.19842 -0.696599,-0.53536 -0.120916,-0.13166 -0.305542,-0.3301 -0.41031,-0.4408 -0.10478,-0.1107 -0.190686,-0.26233 -0.190686,-0.33693 0,-0.0747 -0.09494,-0.3067 -0.211357,-0.51522 -0.176327,-0.31583 -0.211873,-0.49142 -0.211873,-1.05316 0,-0.39311 0.03539,-0.67438 0.08475,-0.67438 0.04657,0 0.08475,-0.0688 0.08475,-0.15296 0,-0.0842 0.05565,-0.22741 0.124024,-0.31781 0.06837,-0.0904 0.125624,-0.23245 0.127124,-0.31575 0.0057,-0.31971 1.221435,-1.83813 1.471745,-1.83813 0.0592,0 0.189418,-0.0764 0.289388,-0.1695 0.09997,-0.0931 0.233206,-0.16898 0.296106,-0.16898 0.0629,0 0.188152,-0.0561 0.278535,-0.12454 0.09039,-0.0684 0.231153,-0.12612 0.312643,-0.12712 0.08149,-0.002 0.148311,-0.0407 0.148311,-0.0873 0,-0.0466 0.169403,-0.0848 0.376205,-0.0848 0.206794,0 0.399101,-0.0382 0.427881,-0.0847 0.06911,-0.11182 1.963333,-0.11182 2.032433,0 0.0288,0.0466 0.222,0.0847 0.42943,0.0847 0.20744,0 0.4431,0.033 0.524,0.0729 0.0809,0.0399 0.26704,0.13486 0.41393,0.21136 0.14688,0.0765 0.33785,0.14007 0.42375,0.14107 0.086,0.001 0.25151,0.0763 0.36793,0.16743 0.11641,0.091 0.27817,0.16644 0.35967,0.16744 0.0815,0.001 0.14831,0.0402 0.14831,0.0868 0,0.0466 0.0547,0.0848 0.12196,0.0848 0.0673,0 0.26727,0.13282 0.44441,0.29559 0.17722,0.16276 0.36687,0.2964 0.42117,0.29662 0.0543,2e-4 0.11162,0.0291 0.12712,0.0641 0.0155,0.035 0.24167,0.24451 0.50281,0.46561 0.376841,0.3191 0.538671,0.40204 0.783421,0.40204 0.1696,0 0.30799,-0.0384 0.30799,-0.0848 0,-0.0466 0.048,-0.0848 0.10645,-0.0848 0.0585,0 0.29665,-0.171 0.52917,-0.37982 0.23253,-0.20882 0.47045,-0.38013 0.52865,-0.38086 0.0582,-7e-4 0.10594,-0.0392 0.10594,-0.0858 0,-0.0466 0.0399,-0.0848 0.0884,-0.0848 0.0923,0 0.2071,-0.085 0.54674,-0.40256 0.11206,-0.10479 0.25338,-0.19082 0.31368,-0.1912 0.0603,-3.8e-4 0.28086,-0.16967 0.49041,-0.37672 0.20955,-0.20706 0.44766,-0.37834 0.52916,-0.38034 0.0815,-0.002 0.14938,-0.0328 0.15038,-0.0677 10e-4,-0.0349 0.17191,-0.17759 0.38034,-0.31729 0.20842,-0.1397 0.3792,-0.28291 0.3793,-0.31781 1.1e-4,-0.0349 0.0573,-0.063 0.12713,-0.063 0.0698,0 0.12712,-0.0384 0.12712,-0.0847 0,-0.0466 0.0544,-0.0848 0.12092,-0.0848 0.0665,0 0.19573,-0.0954 0.28733,-0.21188 0.0916,-0.11646 0.19225,-0.21135 0.22375,-0.21135 0.1398,0 0.80719,-0.52859 0.80719,-0.63924 0,-0.069 0.0794,-0.12299 0.18087,-0.12299 0.2036,0 0.5812,-0.3926 0.58136,-0.60461 6e-5,-0.0765 -0.0601,-0.16239 -0.13384,-0.19069 -0.0737,-0.0283 -2.75743,-0.0512 -5.96398,-0.0512 -3.795381,0 -5.848231,-0.0299 -5.882331,-0.0848 -0.0311,-0.0503 -0.5639,-0.0847 -1.31258,-0.0847 z m 96.893307,0.0331 v 5.2e-4 5.2e-4 c -2.59412,0.0136 -5.34945,0.0537 -6.04511,0.10852 -0.77501,0.061 -0.89201,0.0905 -0.91881,0.23099 -0.0169,0.0886 -0.10462,0.24013 -0.19482,0.33693 -0.0902,0.0968 -0.1874,0.27178 -0.216,0.38913 -0.0287,0.11734 -0.0745,0.23249 -0.10232,0.25579 -0.11277,0.0946 -0.26252,0.43131 -0.26252,0.59118 0,0.0938 -0.0376,0.17053 -0.0842,0.17053 -0.0465,0 -0.0855,0.10501 -0.0863,0.23307 -8.6e-4,0.13648 -0.0886,0.31511 -0.21188,0.43201 -0.12943,0.12284 -0.2098,0.2934 -0.2098,0.44442 0,0.13481 -0.0287,0.24562 -0.0636,0.24598 -0.0859,8.9e-4 -0.27544,0.41954 -0.27544,0.60875 0,0.0839 -0.0375,0.15244 -0.0832,0.15244 -0.1333,0 -0.19403,0.39174 -0.0904,0.58498 0.0831,0.15532 0.17224,0.17725 0.72192,0.17725 0.34486,0 0.65074,-0.0382 0.67954,-0.0847 0.0288,-0.0466 0.31655,-0.0848 0.63976,-0.0848 h 0.58756 v 13.29273 13.29324 h 4.56716 c 2.95334,0 4.58556,-0.03 4.61936,-0.0847 0.0288,-0.0466 0.31463,-0.0847 0.6351,-0.0847 0.32047,0 0.60579,-0.0385 0.63459,-0.0847 0.0288,-0.0466 0.3266,-0.0853 0.66146,-0.0873 0.36736,-0.002 0.69291,-0.051 0.82062,-0.12402 0.11642,-0.0666 0.33303,-0.12202 0.48162,-0.12402 0.14859,-0.002 0.29366,-0.0409 0.32246,-0.0879 0.0288,-0.0466 0.25979,-0.0853 0.51315,-0.0853 0.25337,0 0.46044,-0.0377 0.46044,-0.0842 0,-0.0466 0.15032,-0.0853 0.33383,-0.0853 0.18352,0 0.35722,-0.0377 0.38602,-0.0842 0.0288,-0.0466 0.12321,-0.0853 0.20981,-0.0853 0.0866,0 0.26504,-0.0552 0.39687,-0.12299 0.13183,-0.0678 0.36388,-0.17254 0.51522,-0.23254 0.15135,-0.0599 0.27491,-0.13792 0.27491,-0.17312 0,-0.0352 0.11455,-0.0641 0.25425,-0.0641 0.1397,0 0.25373,-0.0382 0.25373,-0.0847 0,-0.0466 0.0401,-0.0848 0.0889,-0.0848 0.0488,0 0.29712,-0.13364 0.5519,-0.29662 0.25479,-0.16298 0.49243,-0.2961 0.52813,-0.2961 0.0357,0 0.24636,-0.17131 0.46819,-0.38086 0.22183,-0.20955 0.44735,-0.38137 0.50075,-0.38137 0.13979,0 1.92649,-1.85043 1.92649,-1.99523 0,-0.0667 0.0376,-0.12144 0.0842,-0.12144 0.0466,0 0.0847,-0.0558 0.0847,-0.12402 0,-0.0682 0.0764,-0.16457 0.1695,-0.21446 0.0931,-0.0498 0.16949,-0.14839 0.16949,-0.21859 0,-0.0702 0.0949,-0.22998 0.21136,-0.35553 0.11646,-0.12555 0.21187,-0.30601 0.21187,-0.40101 0,-0.095 0.0764,-0.22798 0.1695,-0.29508 0.0981,-0.0707 0.16898,-0.21897 0.16898,-0.35295 0,-0.1271 0.0477,-0.26149 0.10594,-0.29869 0.17346,-0.11093 0.31729,-0.42945 0.31729,-0.70176 0,-0.14034 0.0382,-0.25528 0.0847,-0.25528 0.0466,0 0.0848,-0.0739 0.0848,-0.16433 0,-0.0904 0.0382,-0.18773 0.0848,-0.21653 0.0466,-0.0288 0.0863,-0.15477 0.0873,-0.28008 10e-4,-0.12531 0.0587,-0.30183 0.12712,-0.39223 0.0684,-0.0904 0.12454,-0.25025 0.12454,-0.35502 0,-0.10477 0.0376,-0.21356 0.0842,-0.24236 0.0466,-0.0288 0.0847,-0.23878 0.0847,-0.46612 0,-0.22734 0.0386,-0.4368 0.0848,-0.4656 0.0466,-0.0288 0.0847,-0.25736 0.0847,-0.50798 0,-0.25062 0.0386,-0.47918 0.0848,-0.50798 0.0467,-0.0288 0.0847,-0.40672 0.0847,-0.84181 0,-0.5358 0.0408,-0.86795 0.12661,-1.0325 0.18451,-0.35379 0.18451,-3.77155 0,-4.12533 -0.0858,-0.16455 -0.12661,-0.49671 -0.12661,-1.03249 0,-0.43511 -0.0376,-0.81301 -0.0847,-0.84181 -0.0466,-0.0288 -0.0848,-0.24069 -0.0848,-0.47077 0,-0.23009 -0.0382,-0.41807 -0.0847,-0.41807 -0.0466,0 -0.0848,-0.155 -0.0848,-0.34416 0,-0.38753 -0.23388,-1.17977 -0.3483,-1.17977 -0.0412,0 -0.0749,-0.12587 -0.0749,-0.27957 0,-0.29177 -0.16539,-0.73488 -0.27492,-0.73588 -0.0349,-3.6e-4 -0.0636,-0.0902 -0.0636,-0.19947 0,-0.23654 -0.23334,-0.73277 -0.34468,-0.73277 -0.0432,0 -0.0786,-0.0685 -0.0786,-0.15244 0,-0.18921 -0.18953,-0.60786 -0.27543,-0.60875 -0.0349,-3.6e-4 -0.0636,-0.0629 -0.0636,-0.13901 0,-0.0761 -0.0949,-0.22697 -0.21135,-0.33486 -0.11647,-0.10789 -0.21188,-0.24671 -0.21188,-0.30851 0,-0.0618 -0.0764,-0.167 -0.16949,-0.2341 -0.0931,-0.0671 -0.16899,-0.18896 -0.16899,-0.27026 0,-0.0813 -0.13364,-0.28093 -0.29662,-0.44391 -0.16298,-0.16299 -0.2963,-0.32626 -0.29662,-0.36276 -8.5e-4,-0.0948 -1.00213,-1.05321 -1.35444,-1.29657 -0.16298,-0.11258 -0.36572,-0.29136 -0.45062,-0.39739 -0.0849,-0.10608 -0.21919,-0.19275 -0.29869,-0.19275 -0.0795,0 -0.19955,-0.0759 -0.26665,-0.16898 -0.0671,-0.0931 -0.16863,-0.1695 -0.22583,-0.1695 -0.0572,0 -0.20667,-0.0954 -0.33228,-0.21187 -0.12562,-0.11646 -0.31826,-0.21136 -0.42788,-0.21136 -0.1096,0 -0.19895,-0.0383 -0.19895,-0.0847 0,-0.0466 -0.0572,-0.0848 -0.12712,-0.0848 -0.0698,0 -0.12713,-0.0383 -0.12713,-0.0847 0,-0.0466 -0.11403,-0.0848 -0.25373,-0.0848 -0.1397,0 -0.25425,-0.0306 -0.25425,-0.0682 0,-0.095 -0.61017,-0.35502 -0.83302,-0.35502 -0.10081,0 -0.18294,-0.0333 -0.18294,-0.0739 0,-0.0406 -0.18085,-0.0979 -0.40204,-0.12712 -0.85444,-0.11283 -1.07575,-0.16417 -1.18752,-0.27595 -0.0811,-0.0811 -0.34934,-0.11576 -0.89711,-0.11576 -0.42975,0 -0.82034,-0.0385 -0.86764,-0.0858 -0.0509,-0.0509 -2.48361,-0.0637 -5.07773,-0.0501 z m -174.547483,0.15762 c -7.8914693,-0.0137 -12.4127723,0.008 -12.5522043,0.0615 -0.119852,0.0456 -0.217558,0.14088 -0.217558,0.21188 0,0.071 -0.038179,0.12919 -0.084749,0.12919 -0.04657,0 -0.084749,0.0595 -0.084749,0.13177 0,0.0723 -0.095457,0.27155 -0.2118738,0.44287 -0.116416,0.17132 -0.2113566,0.37865 -0.2113566,0.46095 0,0.0823 -0.028637,0.15001 -0.063562,0.15038 -0.084346,8.7e-4 -0.2749187,0.41843 -0.2749187,0.60203 0,0.0799 -0.030018,0.15813 -0.066146,0.17363 -0.089791,0.0386 -0.6960815,1.25484 -0.6960815,1.3963 0,0.0625 -0.038182,0.11369 -0.084749,0.11369 -0.046567,0 -0.084749,0.0701 -0.084749,0.15606 0,0.086 -0.059715,0.2762 -0.1328085,0.42272 -0.074586,0.14947 -0.1085422,0.343 -0.077515,0.4408 0.053183,0.16751 0.1010365,0.17277 1.2547038,0.13487 0.6596854,-0.0217 1.3799854,-0.0658 1.6004194,-0.0977 l 0.400492,-0.0579 0.043925,7.35304 c 0.07825,13.16887 0.127117,17.08013 0.214457,17.16743 0.0458,0.0458 0.083199,0.43768 0.083199,0.87075 v 0.78755 h 0.714685 c 0.393069,0 0.738099,0.0374 0.766879,0.0837 0.03198,0.0518 0.692605,0.0858 1.698604,0.0858 h 1.6458942 v -5.71025 c 0,-3.71533 0.02966,-5.72792 0.08475,-5.76192 0.04657,-0.0288 0.08423,-0.35409 0.08423,-0.72295 v -0.67076 l 3.83129,-0.03 c 2.107127,-0.0165 3.964413,-0.0572 4.127397,-0.0899 0.162976,-0.0327 0.458382,-0.0789 0.65629,-0.10336 0.329754,-0.0407 0.359668,-0.0649 0.359668,-0.28835 0,-0.1341 0.03818,-0.26731 0.08475,-0.29611 0.04657,-0.0288 0.08475,-0.12612 0.08475,-0.21652 0,-0.0904 0.03818,-0.16485 0.08475,-0.16485 0.04657,0 0.08475,-0.0762 0.08475,-0.17001 0,-0.17792 0.136421,-0.46105 0.317293,-0.65785 0.0582,-0.0633 0.105937,-0.22859 0.105937,-0.3669 0,-0.13832 0.07637,-0.33305 0.169498,-0.43305 0.09313,-0.1 0.168982,-0.28921 0.168982,-0.42013 0,-0.13092 0.03818,-0.23771 0.08475,-0.23771 0.04657,0 0.08475,-0.0526 0.08475,-0.11679 0,-0.0641 0.05727,-0.16421 0.127124,-0.22221 0.06985,-0.058 0.127124,-0.21481 0.127124,-0.34881 0,-0.134 0.03766,-0.2434 0.08423,-0.2434 0.04657,0 0.08475,-0.0739 0.08475,-0.16433 0,-0.0904 0.03818,-0.18824 0.08475,-0.21704 0.04657,-0.0288 0.08475,-0.18342 0.08475,-0.34365 v -0.29145 H 19.5095 c -0.921333,0 -1.539223,-0.0328 -1.570963,-0.0842 -0.03367,-0.0545 -1.454268,-0.0847 -3.984253,-0.0847 h -3.932061 v -3.68298 -3.68247 l 8.393802,-0.0217 c 7.362741,-0.0189 8.401782,-0.0369 8.456332,-0.14831 0.0342,-0.0699 0.142915,-0.29275 0.241845,-0.49506 0.09893,-0.20231 0.179834,-0.44047 0.179834,-0.52917 0,-0.0887 0.03818,-0.16123 0.08475,-0.16123 0.04657,0 0.08475,-0.0596 0.08475,-0.13281 0,-0.0732 0.05727,-0.19055 0.127124,-0.26045 0.06985,-0.0699 0.126607,-0.19892 0.126607,-0.28732 0,-0.0884 0.07637,-0.29668 0.169499,-0.4625 0.09313,-0.16582 0.169499,-0.39556 0.169499,-0.51056 0,-0.11499 0.03818,-0.20878 0.08475,-0.20878 0.04657,0 0.08423,-0.0543 0.08423,-0.1204 0,-0.0661 0.05383,-0.22784 0.119372,-0.35967 0.06554,-0.13183 0.16101,-0.34478 0.211873,-0.47284 0.05087,-0.12806 0.133332,-0.32108 0.183452,-0.42943 0.05012,-0.10835 0.07875,-0.32739 0.06356,-0.48679 l -0.02791,-0.28991 z m 128.657263,0.0289 c -3.28926,0.008 -3.31297,0.0114 -3.5078,0.50798 -0.0623,0.15888 -0.1415,0.28887 -0.1757,0.28887 -0.0342,0 -0.0872,0.11404 -0.11782,0.25321 -0.0306,0.13916 -0.0903,0.27467 -0.13333,0.30127 -0.043,0.0266 -0.0785,0.12251 -0.0785,0.21291 0,0.0904 -0.0382,0.16433 -0.0848,0.16433 -0.0466,0 -0.0842,0.0759 -0.0842,0.16898 0,0.0931 -0.0382,0.1695 -0.0847,0.1695 -0.0466,0 -0.0847,0.11609 -0.0847,0.25787 0,0.16215 -0.0788,0.33611 -0.21188,0.46922 -0.11647,0.11642 -0.21135,0.30531 -0.21135,0.41961 0,0.11432 -0.0384,0.20774 -0.0848,0.20774 -0.0466,0 -0.0847,0.0764 -0.0847,0.1695 0,0.0931 -0.0384,0.1695 -0.0848,0.1695 -0.0466,0 -0.0847,0.0949 -0.0847,0.21136 0,0.11646 -0.0405,0.21187 -0.0899,0.21187 -0.052,0 -0.0788,0.1335 -0.0636,0.31729 l 0.0264,0.31781 1.45263,0.0227 1.45211,0.0233 0.0305,2.98276 c 0.0222,2.16076 0.0597,3.03327 0.13539,3.16725 0.0787,0.13915 0.10438,1.1284 0.10438,3.99562 0,2.44902 0.0303,3.82921 0.0848,3.86281 0.0552,0.0341 0.0847,2.11953 0.0847,5.98 0,5.02441 0.0184,5.94621 0.12093,6.04873 0.098,0.098 0.49916,0.12092 2.11149,0.12092 1.23582,0 2.01079,0.0324 2.04329,0.0847 0.0288,0.0466 0.14333,0.0848 0.25425,0.0848 0.11092,0 0.22493,-0.0383 0.25373,-0.0848 0.029,-0.0469 0.41406,-0.0847 0.86351,-0.0847 0.84763,0 1.03222,-0.0774 1.03922,-0.43563 0.001,-0.0765 0.0598,-0.16079 0.1297,-0.18759 0.0699,-0.0268 0.12661,-0.1058 0.12661,-0.1757 0,-0.0699 0.0764,-0.26309 0.1695,-0.42891 0.0931,-0.16582 0.16868,-0.34783 0.16795,-0.40463 -0.002,-0.13002 0.44522,-1.02498 0.53072,-1.06298 0.0349,-0.0155 0.0636,-0.0936 0.0636,-0.17364 0,-0.1836 0.19052,-0.60063 0.27492,-0.60151 0.0349,-3.6e-4 0.0636,-0.11507 0.0636,-0.25477 0,-0.1397 0.0337,-0.25424 0.0749,-0.25424 0.0412,0 0.13594,-0.0935 0.21084,-0.20774 0.1024,-0.15627 0.11572,-0.26108 0.0543,-0.42323 -0.0762,-0.20027 -0.12075,-0.21549 -0.62942,-0.21549 -0.30109,0 -0.57065,0.0385 -0.59945,0.0848 -0.0297,0.0481 -0.45173,0.0842 -0.97565,0.0842 H 148.629 l -0.0248,-5.54178 c -0.0191,-4.2934 -0.0487,-5.5652 -0.13074,-5.6472 -0.0828,-0.0827 -0.106,-1.50026 -0.108,-6.50193 -0.002,-5.79083 -0.0692,-8.48742 -0.21446,-8.631 -0.0288,-0.0284 -1.4021,-0.0479 -3.05149,-0.0439 z m -112.201419,1.41696 c -0.01126,0.006 -0.01818,0.006 -0.02946,0.0114 -7.78e-4,0.002 -0.0013,0.005 -0.0021,0.007 -0.004,0.0108 0.02712,-0.004 0.03152,-0.015 3.51e-4,-8.7e-4 -3.11e-4,-0.002 0,-0.003 z m -2.322856,1.54306 c -0.01176,0.005 -0.04675,0.0382 -0.05374,0.0382 -0.01063,0 -0.16433,0.15614 -0.203088,0.18604 0.08712,-0.0492 0.119175,-0.0644 0.04341,0.005 0.05426,-0.0236 0.108524,-0.0472 0.162781,-0.0708 0.01814,-0.0519 0.03421,-0.10517 0.05064,-0.15813 z m 19.403467,0.18552 c -0.0073,0.0406 -0.0154,0.0885 -0.02274,0.12867 8e-6,0.001 -8e-6,0.002 0,0.003 0.05253,-0.009 0.09459,-0.0148 0.144177,-0.0233 -0.03786,-0.0316 -0.0867,-0.0809 -0.121439,-0.10852 z m 140.553178,0.52968 h 1.39681 c 0.87489,0 1.39681,0.0316 1.39681,0.0847 0,0.0492 0.2766,0.0848 0.66043,0.0848 0.3702,0 0.70188,0.0409 0.75448,0.0935 0.0516,0.0516 0.34599,0.11431 0.65422,0.13901 0.30823,0.0248 0.58085,0.0777 0.60565,0.11782 0.0248,0.0401 0.13557,0.0729 0.24649,0.0729 0.11092,0 0.22493,0.0384 0.25373,0.0848 0.0288,0.0466 0.18342,0.0847 0.34365,0.0847 0.16024,0 0.29146,0.0384 0.29146,0.0848 0,0.0466 0.0731,0.0847 0.16226,0.0847 0.0893,0 0.17519,0.0281 0.19069,0.063 0.0155,0.0349 0.19973,0.14941 0.40928,0.25425 0.44399,0.22218 0.8708,0.46702 0.9312,0.53382 0.0233,0.0257 0.19459,0.15861 0.38086,0.29559 0.41103,0.30225 1.48208,1.35599 1.48208,1.45831 0,0.0404 0.13313,0.2292 0.29611,0.41961 0.16298,0.19041 0.2961,0.38018 0.2961,0.42168 0,0.12877 0.20844,0.53157 0.27544,0.53227 0.0349,3.6e-4 0.0636,0.0931 0.0636,0.20619 0,0.11309 0.0477,0.25761 0.10594,0.32091 0.20272,0.22057 0.31729,0.4886 0.31729,0.74207 0,0.14033 0.0382,0.25528 0.0847,0.25528 0.0466,0 0.0848,0.11213 0.0848,0.24908 0,0.13695 0.0382,0.27248 0.0847,0.30128 0.0466,0.0288 0.0848,0.2145 0.0848,0.41237 0,0.1979 0.0556,0.4336 0.12402,0.524 0.0684,0.0904 0.12612,0.30511 0.12712,0.47698 0.002,0.17188 0.0407,0.33603 0.0873,0.36483 0.0538,0.0332 0.0847,1.09966 0.0847,2.92075 0,1.82112 -0.0309,2.88807 -0.0847,2.92127 -0.0466,0.0288 -0.0863,0.19297 -0.0873,0.36484 -10e-4,0.17188 -0.0587,0.38657 -0.12712,0.47697 -0.0688,0.0909 -0.12402,0.34385 -0.12402,0.56638 0,0.22118 -0.0385,0.42543 -0.0848,0.45423 -0.0466,0.0288 -0.0847,0.14333 -0.0847,0.25425 0,0.11092 -0.0385,0.22493 -0.0848,0.25373 -0.0466,0.0288 -0.0847,0.18342 -0.0847,0.34365 0,0.16024 -0.0385,0.29145 -0.0848,0.29145 -0.0466,0 -0.0847,0.0601 -0.0847,0.13333 0,0.0732 -0.0572,0.19003 -0.12712,0.25993 -0.0699,0.0699 -0.12661,0.20172 -0.12661,0.29352 0,0.0918 -0.0764,0.24882 -0.1695,0.34882 -0.0931,0.1 -0.1695,0.25487 -0.1695,0.34417 0,0.14066 -0.0937,0.28759 -0.50901,0.79685 -0.0459,0.0563 -0.0837,0.13388 -0.0837,0.17208 0,0.0383 -0.0759,0.1241 -0.16898,0.1912 -0.0931,0.0671 -0.1695,0.18402 -0.1695,0.25942 0,0.0754 -0.0954,0.18006 -0.21187,0.23306 -0.11646,0.053 -0.21136,0.15441 -0.21136,0.22531 0,0.0708 -0.0607,0.12919 -0.13487,0.12919 -0.0742,0 -0.15492,0.0759 -0.17932,0.16898 -0.0243,0.0931 -0.0923,0.1695 -0.1509,0.1695 -0.0586,0 -0.252,0.13314 -0.42994,0.2961 -0.17793,0.16298 -0.35993,0.29663 -0.40463,0.29663 -0.0447,0 -0.20652,0.0955 -0.35915,0.21187 -0.15263,0.11646 -0.3368,0.21136 -0.4098,0.21136 -0.0729,0 -0.1328,0.0377 -0.1328,0.0842 0,0.0466 -0.0573,0.0853 -0.12713,0.0853 -0.0698,0 -0.12712,0.0377 -0.12712,0.0842 0,0.0466 -0.0892,0.0853 -0.19844,0.0853 -0.21359,0 -0.69795,0.21375 -0.77825,0.34365 -0.0269,0.0436 -0.19698,0.0796 -0.37775,0.0796 -0.18077,0 -0.35206,0.0379 -0.38086,0.0842 -0.0288,0.0466 -0.1815,0.0853 -0.33899,0.0853 -0.15749,0 -0.30968,0.0379 -0.33848,0.0842 v -0.001 c -0.0325,0.0527 -0.81952,0.0858 -2.07946,0.0858 h -2.02675 l -0.007,-5.18625 c -0.005,-3.25282 -0.0412,-5.37506 -0.0971,-5.69371 -0.0512,-0.28929 -0.10344,-2.18376 -0.12144,-4.40025 -0.0194,-2.38476 -0.0639,-3.92415 -0.11472,-3.97495 -0.0497,-0.0496 -0.0827,-0.90968 -0.0827,-2.14044 z m -126.940056,1.69344 4.605404,0.003 4.605404,0.003 0.418062,0.37776 c 0.229915,0.20799 0.4534,0.37827 0.49661,0.37827 0.08341,0 0.514088,0.446 0.890385,0.92191 0.124779,0.15781 0.274587,0.33625 0.332797,0.39635 0.0582,0.06 0.105936,0.15171 0.105936,0.20361 0,0.0519 0.09494,0.19691 0.211357,0.32246 0.116417,0.12555 0.211873,0.31436 0.211873,0.41961 0,0.10523 0.02863,0.19188 0.06356,0.19224 0.08616,9e-4 0.274919,0.41967 0.274919,0.60978 0,0.0845 0.0338,0.21986 0.07493,0.30076 0.289675,0.56945 0.306441,0.67242 0.306441,1.90944 0,0.94176 -0.02754,1.2807 -0.105937,1.3069 -0.05821,0.0194 -0.105936,0.10573 -0.105936,0.19223 0,0.0865 -0.03818,0.18101 -0.08475,0.20981 -0.04657,0.0288 -0.08475,0.12615 -0.08475,0.21653 0,0.0903 -0.03766,0.16433 -0.08423,0.16433 -0.04657,0 -0.08475,0.0506 -0.08475,0.11213 0,0.0615 -0.13364,0.26745 -0.296623,0.45786 -0.162983,0.19041 -0.296106,0.37911 -0.296106,0.41961 0,0.0405 -0.07637,0.12875 -0.169498,0.19585 -0.09313,0.0671 -0.169499,0.17088 -0.169499,0.23048 0,0.0596 -0.02987,0.108 -0.06666,0.108 -0.03679,0 -0.236731,0.15527 -0.444417,0.34469 -0.207686,0.18942 -0.482241,0.40699 -0.610299,0.48369 -0.128059,0.0767 -0.23306,0.16969 -0.23306,0.20619 0,0.0365 -0.04386,0.0661 -0.09767,0.0661 -0.05381,0 -0.223058,0.0954 -0.375688,0.21188 -0.152623,0.11647 -0.300322,0.21135 -0.328662,0.21135 -0.02834,0 -0.133607,0.0764 -0.233577,0.1695 -0.175749,0.16333 -0.298753,0.16898 -3.721737,0.16898 -2.303565,0 -3.539835,-0.0304 -3.539835,-0.0853 0,-0.0494 -0.282374,-0.0842 -0.677478,-0.0842 h -0.677478 l -5.17e-4,-5.10149 c -3.3e-4,-2.80561 -0.02457,-5.35821 -0.05426,-5.67253 z m -26.396321,0.81339 h 0.33848 v 0.36432 c 0,0.20023 0.0362,0.40021 0.0801,0.44441 0.08563,0.0863 0.133673,0.96707 0.236161,4.33049 0.04629,1.51901 0.0957,2.16436 0.171049,2.23966 0.07359,0.0735 0.10542,0.43429 0.10542,1.18442 0,0.62783 0.03547,1.1007 0.08475,1.1312 0.05268,0.0325 0.08475,0.82784 0.08475,2.10478 0,1.17193 0.034,2.08678 0.07958,2.13268 0.08784,0.0885 0.155939,1.33443 0.222209,4.08089 l 0.04341,1.79937 h -0.426847 c -0.234597,0 -0.426331,-0.0382 -0.426331,-0.0847 0,-0.0466 -0.09546,-0.0842 -0.211873,-0.0842 -0.116416,0 -0.211357,-0.0384 -0.211357,-0.0848 0,-0.0466 -0.152732,-0.0842 -0.338997,-0.0842 -0.186267,0 -0.338481,-0.0384 -0.338481,-0.0847 0,-0.0466 -0.07173,-0.0848 -0.159163,-0.0848 -0.08743,0 -0.206097,-0.0573 -0.264067,-0.12712 -0.05797,-0.0699 -0.167606,-0.12768 -0.243396,-0.12868 -0.07579,-0.001 -0.232915,-0.0763 -0.349332,-0.16743 -0.116416,-0.091 -0.278178,-0.16643 -0.359668,-0.16743 -0.08149,-0.001 -0.148312,-0.0402 -0.148312,-0.0868 0,-0.0466 -0.03984,-0.0847 -0.08837,-0.0847 -0.04853,0 -0.134446,-0.0388 -0.190686,-0.0863 -0.431029,-0.36388 -0.622247,-0.50622 -0.811837,-0.60462 -0.276338,-0.14338 -1.956987,-1.83737 -1.956987,-1.97249 0,-0.0554 -0.09546,-0.19035 -0.211873,-0.29972 -0.116417,-0.10937 -0.211873,-0.24939 -0.211873,-0.31109 0,-0.0617 -0.03086,-0.11214 -0.06873,-0.11214 -0.03787,0 -0.121052,-0.13363 -0.185002,-0.29662 -0.06395,-0.16298 -0.142616,-0.29611 -0.174666,-0.29611 -0.03205,0 -0.07951,-0.105 -0.10542,-0.23306 -0.02591,-0.12806 -0.125879,-0.31678 -0.222209,-0.41961 -0.09773,-0.10431 -0.175183,-0.30072 -0.175183,-0.44442 0,-0.14164 -0.03818,-0.25735 -0.08475,-0.25735 -0.04657,0 -0.08423,-0.0687 -0.08423,-0.15245 0,-0.0838 -0.03443,-0.18886 -0.07648,-0.23306 -0.04205,-0.0442 -0.09626,-0.25192 -0.119889,-0.46147 -0.06527,-0.57869 -0.196135,-1.10357 -0.30179,-1.20923 -0.15294,-0.15293 -0.122153,-2.68385 0.03514,-2.89181 0.06837,-0.0904 0.124023,-0.26934 0.124023,-0.39739 0,-0.12805 0.03818,-0.25645 0.08475,-0.28525 0.04657,-0.0288 0.08475,-0.2216 0.08475,-0.4284 0,-0.2068 0.03818,-0.37569 0.08475,-0.37569 0.04657,0 0.08475,-0.093 0.08475,-0.2067 0,-0.11367 0.03766,-0.2301 0.08423,-0.2589 0.04657,-0.0288 0.08475,-0.12838 0.08475,-0.22118 0,-0.0929 0.09546,-0.30927 0.211874,-0.48059 0.116417,-0.17132 0.211356,-0.39772 0.211356,-0.50333 0,-0.10561 0.03258,-0.19223 0.07183,-0.19223 0.03925,0 0.161676,-0.18085 0.272334,-0.40205 0.110658,-0.22118 0.288079,-0.49296 0.394291,-0.60409 0.106215,-0.11112 0.19327,-0.27339 0.19327,-0.36019 0,-0.0868 0.0584,-0.15761 0.129708,-0.15761 0.07131,0 0.151747,-0.0589 0.179317,-0.13074 0.05837,-0.15209 1.28341,-1.3932 1.37511,-1.3932 0.03403,0 0.135556,-0.0671 0.225826,-0.14935 0.239825,-0.21836 0.974413,-0.72791 1.243852,-0.86299 0.128057,-0.0642 0.232544,-0.14837 0.232544,-0.18707 0,-0.0387 0.07894,-0.0708 0.175183,-0.0708 0.09624,0 0.300056,-0.0949 0.452686,-0.21135 0.152629,-0.11646 0.378632,-0.21188 0.502295,-0.21188 0.123662,0 0.224792,-0.0383 0.224792,-0.0848 0,-0.0466 0.152216,-0.0847 0.338481,-0.0847 z m 6.219258,0.009 c 0.119055,0.0107 0.215491,0.0375 0.215491,0.0754 0,0.0466 0.104486,0.0848 0.232544,0.0848 0.128057,6e-5 0.343739,0.0955 0.47904,0.21187 0.135301,0.11636 0.308913,0.21136 0.386023,0.21136 0.07711,0 0.221975,0.0764 0.321945,0.16949 0.09997,0.0931 0.231295,0.16944 0.291455,0.1695 0.06016,6e-5 0.212643,0.0855 0.338997,0.19017 0.554046,0.45918 0.70712,0.56951 0.79375,0.57051 0.05073,6.3e-4 0.228871,0.1437 0.395842,0.31833 0.166969,0.17462 0.41105,0.41997 0.542602,0.54467 0.440463,0.41755 0.789616,0.81605 0.789616,0.90175 0,0.0467 0.02863,0.0977 0.06356,0.11317 0.135692,0.0603 0.608668,0.73896 0.661458,0.9493 0.03062,0.12201 0.08241,0.22169 0.115239,0.22169 0.03283,0 0.11175,0.13364 0.1757,0.29662 0.06395,0.16298 0.147648,0.29611 0.185518,0.29611 0.03787,0 0.06873,0.0706 0.06873,0.15658 0,0.17937 0.226257,0.66297 0.344165,0.73587 0.04362,0.027 0.07906,0.17789 0.07906,0.33538 0,0.15749 0.03818,0.30968 0.08475,0.33848 0.04657,0.0288 0.08475,0.14524 0.08475,0.2589 0,0.11366 0.03818,0.20671 0.08475,0.20671 0.04934,0 0.08423,0.28053 0.08423,0.67231 0,0.36978 0.03818,0.69622 0.08475,0.72502 0.04842,0.0299 0.08475,0.46484 0.08475,1.01596 0,0.55111 -0.03633,0.98605 -0.08475,1.01595 -0.04657,0.0288 -0.08475,0.33563 -0.08475,0.68213 0,0.36356 -0.03537,0.62994 -0.08423,0.62994 -0.04657,0 -0.08475,0.11213 -0.08475,0.24908 0,0.13695 -0.03818,0.27247 -0.08475,0.30127 -0.04657,0.0288 -0.08475,0.16433 -0.08475,0.30128 0,0.13694 -0.03516,0.24908 -0.07803,0.24908 -0.04286,0 -0.102755,0.11405 -0.133325,0.25321 -0.03057,0.13917 -0.09086,0.27467 -0.133842,0.30127 -0.04298,0.0266 -0.07803,0.12199 -0.07803,0.21239 0,0.0904 -0.03818,0.16434 -0.08475,0.16434 -0.04657,0 -0.08475,0.0739 -0.08475,0.16433 0,0.0904 -0.03818,0.18824 -0.08475,0.21704 -0.04657,0.0288 -0.08423,0.12182 -0.08423,0.20722 0,0.0854 -0.05727,0.17732 -0.127124,0.20412 -0.06985,0.0268 -0.127124,0.11776 -0.127124,0.20206 0,0.0843 -0.07637,0.20833 -0.169499,0.27543 -0.09314,0.0671 -0.169875,0.16139 -0.170532,0.20929 -0.0021,0.15396 -1.477716,1.73788 -1.619023,1.73788 -0.04016,0 -0.07286,0.0409 -0.07286,0.0909 0,0.11722 -0.215578,0.3328 -0.332797,0.3328 -0.04989,0 -0.09043,0.0376 -0.09043,0.0842 0,0.0466 -0.05003,0.0842 -0.111105,0.0842 -0.06107,0 -0.185166,0.0687 -0.275435,0.15245 -0.09027,0.0838 -0.287909,0.22551 -0.43925,0.31471 -0.151342,0.0892 -0.274918,0.19191 -0.274918,0.22841 0,0.0365 -0.045,0.0672 -0.09974,0.0672 -0.05474,0 -0.387801,0.14114 -0.740523,0.31367 -0.352723,0.17253 -0.66259,0.34332 -0.68833,0.37982 -0.02574,0.0366 -0.09309,-0.0609 -0.149345,-0.21652 -0.0665,-0.18389 -0.121246,-1.20664 -0.157096,-2.92334 -0.03033,-1.4524 -0.08708,-2.66049 -0.126091,-2.68459 -0.03901,-0.0241 -0.0708,-0.68183 -0.0708,-1.46141 0,-0.80429 -0.03601,-1.45295 -0.08268,-1.49965 -0.04783,-0.0478 -0.09905,-1.17961 -0.12299,-2.70474 -0.02264,-1.44256 -0.08188,-3.28975 -0.131258,-4.10466 -0.122029,-2.01385 -0.162039,-3.09303 -0.129708,-3.59875 l 0.624251,0.0222 z m 9.703284,0.51056 c 0.02743,0.059 0.0503,0.12039 0.0739,0.18139 0.0639,0.0664 0.128599,0.13133 0.19327,0.19637 -0.03373,-0.0616 -0.09819,-0.14968 -0.09819,-0.17467 0,-0.0538 -0.03818,-0.0977 -0.08475,-0.0977 -0.04632,0 -0.08377,-0.0476 -0.08423,-0.10542 z m 0.722953,1.21233 c 0.004,0.0191 0.0094,0.038 0.01395,0.0569 0.02271,0.0454 0.0535,0.10379 0.06976,0.139 0.0096,0.0209 0.01248,0.0403 0.02532,0.0739 0.0083,0.003 0.01649,0.006 0.0248,0.009 -0.0054,-0.003 -0.0046,-0.031 -0.01033,-0.031 -0.04657,0 -0.08475,-0.0764 -0.08475,-0.1695 0,-0.0429 -0.02507,-0.0489 -0.03876,-0.078 z m -14.95826,24.28327 c 0.0058,0.0173 0.0045,0.13305 0.01085,0.13695 0.04657,0.0288 0.08475,0.12612 0.08475,0.21652 0,0.0447 0.02327,0.075 0.0832,0.0987 -0.06383,-0.14914 -0.122656,-0.30016 -0.178801,-0.45217 z"
       inkscape:export-filename="path1.png"
       inkscape:export-xdpi="300"
       inkscape:export-ydpi="300" />
  </g>
</svg>
