<?xml version="1.0" standalone="no"?>
<!DOCTYPE svg PUBLIC "-//W3C//DTD SVG 20010904//EN"
 "http://www.w3.org/TR/2001/REC-SVG-20010904/DTD/svg10.dtd">
<svg version="1.0" xmlns="http://www.w3.org/2000/svg"
 width="245.000000pt" height="245.000000pt" viewBox="0 0 245.000000 245.000000"
 preserveAspectRatio="xMidYMid meet">
<metadata>
Created by potrace 1.14, written by Peter Selinger 2001-2017
</metadata>
<g transform="translate(0.000000,245.000000) scale(0.100000,-0.100000)"
fill="#000000" stroke="none">
<path d="M975 2355 c3 -44 8 -89 10 -100 6 -32 18 -156 19 -203 l1 -42 -100
-34 c-87 -29 -129 -50 -240 -119 -45 -28 -179 -166 -225 -233 -28 -40 -50 -75
-50 -78 0 -3 -11 -29 -24 -58 -59 -132 -78 -221 -80 -373 0 -137 21 -240 75
-362 11 -24 19 -45 19 -48 0 -3 16 -31 35 -61 19 -30 35 -56 35 -58 0 -20 143
-160 213 -210 121 -85 295 -155 397 -159 27 0 50 -4 51 -7 0 -3 1 -30 2 -60 2
-30 6 -61 10 -67 6 -9 46 -13 141 -13 l134 0 1 77 c1 80 3 86 26 89 68 10 245
94 315 149 53 42 159 152 197 205 41 57 102 177 112 222 1 4 8 26 16 48 8 22
17 59 20 82 4 24 10 61 14 83 10 55 6 132 -13 265 -2 14 -11 47 -20 73 -9 26
-16 52 -16 58 0 20 -89 190 -121 232 -54 69 -120 136 -180 182 -104 81 -264
153 -384 172 -40 6 -47 14 -52 63 -4 36 -14 51 -70 104 -74 69 -156 147 -226
215 l-49 46 7 -80z m51 -688 c3 -21 10 -136 19 -317 2 -47 7 -96 10 -110 3
-14 8 -95 11 -180 3 -85 9 -193 12 -240 4 -47 7 -132 7 -190 0 -114 2 -112
-60 -95 -146 39 -312 178 -377 315 -64 135 -84 272 -57 375 6 22 13 47 14 56
6 32 49 125 81 174 63 98 212 215 299 235 35 8 38 7 41 -23z m429 -10 c36 -20
90 -57 138 -97 24 -20 91 -107 114 -150 61 -110 85 -232 70 -365 -16 -144 -74
-253 -195 -373 -23 -23 -46 -42 -50 -42 -5 0 -17 -8 -28 -18 -26 -24 -107 -62
-116 -54 -4 4 -10 79 -13 167 -9 213 -13 294 -19 395 -3 47 -8 168 -12 270 -3
102 -7 208 -8 235 -2 43 1 51 18 56 26 8 50 2 101 -24z"/>
</g>
</svg>
